<?xml version="1.0" encoding="UTF-8"?>
<svg id="thesvg" viewBox="0 0 600 400" version="1.1"
  xmlns="http://www.w3.org/2000/svg" xmlns:xlink="http://www.w3.org/1999/xlink">
<defs>
<style type="text/css"><![CDATA[
body { margin: auto; font-family: BentonSans, sans-serif; cursor: default; background-color: rgb(255, 241, 224); }
.ui-mobile { outline: none; -webkit-box-shadow: none !important; box-shadow: none !important; }
.ui-loader.ui-corner-all.ui-body-a.ui-loader-default { display: none; }
#ft-header { height: 50px; width: 100%; position: absolute; top: 0px; z-index: 2000; overflow: hidden; text-align: center; border-bottom-width: 1px; border-bottom-style: solid; border-bottom-color: rgb(206, 198, 185); display: none; background-color: rgb(255, 241, 224); }
#ft-header a { background-color: rgb(255, 241, 224); }
h1 { text-align: center; margin: 70px auto auto; font-family: MillerDisplay, Clarion, Georgia, serif; font-weight: 400; font-size: 3em; }
h1 { display: block; -webkit-margin-start: 0px; -webkit-margin-end: 0px; }
text { font-family: BentonSans, sans-serif; cursor: default; }
#container { position: relative; width: 600px; padding-top: 400px; line-height: 0; border: 0px solid red; }
#thesvg { position: absolute; top: 0px; right: 0px; bottom: 0px; left: 0px; }
.axis path { stroke-width: 1px; fill: none; stroke: rgb(206, 198, 185); }
.tick line { stroke-width: 1px; fill: none; stroke: rgb(206, 198, 185); }
.axis text { font-size: 12px; fill: rgb(116, 115, 108); }
#yaxis line { stroke-dasharray: 2px, 2px; stroke: rgb(206, 198, 185); }
#yaxis path { stroke: none; }
#xaxis path { display: none; }
.baseTick { stroke-dasharray: 0px, 0px !important; stroke: rgb(116, 115, 108) !important; }
.hidden { display: none; }
.partyline { fill: none; stroke-width: 2px; }
text.Lab { fill: rgb(191, 31, 31); }
path.Lab { stroke: rgb(226, 80, 80); }
.Lab circle { fill: rgb(226, 80, 80); }
text.LD { fill: rgb(253, 187, 48); }
path.LD { stroke: rgb(255, 198, 96); }
.LD circle { fill: rgb(255, 198, 96); }
text.Green { fill: rgb(0, 128, 102); }
path.Green { stroke: rgb(101, 166, 140); }
.Green circle { fill: rgb(101, 166, 140); }
text.Con { fill: rgb(0, 135, 220); }
path.Con { stroke: rgb(109, 168, 225); }
.Con circle { fill: rgb(109, 168, 225); }
text.UKIP { fill: rgb(179, 0, 157); }
path.UKIP { stroke: rgb(202, 109, 191); }
.UKIP circle { fill: rgb(202, 109, 191); }
circle.pollcircle { opacity: 0.3; }
.pinkline { fill: none; stroke-width: 3px; stroke: rgb(255, 241, 224) !important; }
.linelabel { font-size: 12px; font-weight: bold; }
#redrawbutton { color: rgb(255, 241, 224); padding: 4px; position: relative; top: 10px; left: 10px; cursor: pointer; margin-right: 4px; font-size: 12px; border-radius: 3px; background-color: rgb(175, 81, 108); }
.optionbutton { color: rgb(255, 241, 224); padding: 4px; position: relative; top: 10px; left: 10px; margin-left: 4px; cursor: pointer; font-size: 12px; border-radius: 3px; background-color: rgb(118, 172, 184); }
.optionbutton.clicked { padding: 2px; border: 2px solid rgb(67, 66, 62); background-color: rgb(78, 134, 182); }]]></style></defs>
<g class="axis" id="xaxis" transform="translate(0,380)">
  <g class="tick" transform="translate(103.93601190476191,0)" style="opacity: 1;">
    <line y2="5" x2="0"/><text y="8" x="0" dy=".71em" style="text-anchor: middle;">Nov '14</text></g>
    <g class="tick" transform="translate(182.7625425170068,0)" style="opacity: 1;"><line y2="5" x2="0"/><text y="8" x="0" dy=".71em" style="text-anchor: middle;">Dec '14</text></g><g class="tick" transform="translate(264.2166241496599,0)" style="opacity: 1;"><line y2="5" x2="0"/><text y="8" x="0" dy=".71em" style="text-anchor: middle;">Jan '15</text></g><g class="tick" transform="translate(345.6707057823129,0)" style="opacity: 1;"><line y2="5" x2="0"/><text y="8" x="0" dy=".71em" style="text-anchor: middle;">Feb '15</text></g><g class="tick" transform="translate(419.2421343537415,0)" style="opacity: 1;"><line y2="5" x2="0"/><text y="8" x="0" dy=".71em" style="text-anchor: middle;">Mar '15</text></g><path class="domain" d="M25,5V0H540V5"/><g class="tick"><text x="540" y="17" text-anchor="middle">Apr 16 '15</text><line x2="0" y2="5" transform="translate(540,0)"/></g></g><g class="axis" id="yaxis" transform="translate(0,0)"><g class="tick" transform="translate(0,380)" style="opacity: 1;"><line x2="600" y2="0" class="baseTick"/><text x="-3" y="0" dy=".32em" transform="translate(18,-6)" style="text-anchor: end;">0</text></g><g class="tick" transform="translate(0,288.75)" style="opacity: 1;"><line x2="540" y2="0"/><text x="-3" y="0" dy=".32em" transform="translate(18,-6)" style="text-anchor: end;">10</text></g><g class="tick" transform="translate(0,197.5)" style="opacity: 1;"><line x2="540" y2="0"/><text x="-3" y="0" dy=".32em" transform="translate(18,-6)" style="text-anchor: end;">20</text></g><g class="tick" transform="translate(0,106.25)" style="opacity: 1;"><line x2="540" y2="0"/><text x="-3" y="0" dy=".32em" transform="translate(18,-6)" style="text-anchor: end;">30</text></g><g class="tick" transform="translate(0,15)" style="opacity: 1;"><line x2="540" y2="0"/><text x="-3" y="0" dy=".32em" transform="translate(18,-6)" style="text-anchor: end;">40</text></g><path class="domain" d="M540,15H0V380H540"/></g><g class="group UKIP"><circle class="pollcircle UKIP" cx="25" cy="261.375" r="3"/><circle class="pollcircle UKIP" cx="27.627551020408163" cy="261.375" r="3"/><circle class="pollcircle UKIP" cx="32.88265306122449" cy="243.125" r="3"/><circle class="pollcircle UKIP" cx="35.51020408163265" cy="261.375" r="3"/><circle class="pollcircle UKIP" cx="38.13775510204081" cy="243.125" r="3"/><circle class="pollcircle UKIP" cx="40.765306122448976" cy="252.25" r="3"/><circle class="pollcircle UKIP" cx="43.39285714285714" cy="261.375" r="3"/><circle class="pollcircle UKIP" cx="46.0204081632653" cy="234" r="3"/><circle class="pollcircle UKIP" cx="51.275510204081634" cy="261.375" r="3"/><circle class="pollcircle UKIP" cx="53.9030612244898" cy="224.87499999999997" r="3"/><circle class="pollcircle UKIP" cx="56.53061224489796" cy="215.75" r="3"/><circle class="pollcircle UKIP" cx="59.15816326530612" cy="206.625" r="3"/><circle class="pollcircle UKIP" cx="61.785714285714285" cy="215.75" r="3"/><circle class="pollcircle UKIP" cx="64.41326530612244" cy="234" r="3"/><circle class="pollcircle UKIP" cx="69.66836734693877" cy="215.75" r="3"/><circle class="pollcircle UKIP" cx="72.29591836734694" cy="243.125" r="3"/><circle class="pollcircle UKIP" cx="74.92346938775509" cy="234" r="3"/><circle class="pollcircle UKIP" cx="77.55102040816327" cy="224.87499999999997" r="3"/><circle class="pollcircle UKIP" cx="80.17857142857142" cy="243.125" r="3"/><circle class="pollcircle UKIP" cx="82.8061224489796" cy="234" r="3"/><circle class="pollcircle UKIP" cx="88.06122448979592" cy="261.375" r="3"/><circle class="pollcircle UKIP" cx="90.7982568027211" cy="215.75" r="3"/><circle class="pollcircle UKIP" cx="93.42580782312925" cy="224.87499999999997" r="3"/><circle class="pollcircle UKIP" cx="96.05335884353741" cy="224.87499999999997" r="3"/><circle class="pollcircle UKIP" cx="98.68090986394557" cy="243.125" r="3"/><circle class="pollcircle UKIP" cx="101.30846088435375" cy="215.75" r="3"/><circle class="pollcircle UKIP" cx="103.93601190476191" cy="160.99999999999997" r="3"/><circle class="pollcircle UKIP" cx="106.56356292517006" cy="234" r="3"/><circle class="pollcircle UKIP" cx="109.19111394557822" cy="243.125" r="3"/><circle class="pollcircle UKIP" cx="111.8186649659864" cy="243.125" r="3"/><circle class="pollcircle UKIP" cx="114.44621598639456" cy="224.87499999999997" r="3"/><circle class="pollcircle UKIP" cx="117.07376700680273" cy="252.25" r="3"/><circle class="pollcircle UKIP" cx="119.70131802721087" cy="206.625" r="3"/><circle class="pollcircle UKIP" cx="124.95642006802721" cy="252.25" r="3"/><circle class="pollcircle UKIP" cx="127.58397108843538" cy="224.87499999999997" r="3"/><circle class="pollcircle UKIP" cx="130.21152210884355" cy="243.125" r="3"/><circle class="pollcircle UKIP" cx="132.8390731292517" cy="243.125" r="3"/><circle class="pollcircle UKIP" cx="135.46662414965988" cy="261.375" r="3"/><circle class="pollcircle UKIP" cx="138.094175170068" cy="215.75" r="3"/><circle class="pollcircle UKIP" cx="143.34927721088437" cy="234" r="3"/><circle class="pollcircle UKIP" cx="145.97682823129253" cy="243.125" r="3"/><circle class="pollcircle UKIP" cx="148.60437925170066" cy="243.125" r="3"/><circle class="pollcircle UKIP" cx="151.23193027210885" cy="252.25" r="3"/><circle class="pollcircle UKIP" cx="153.85948129251702" cy="206.625" r="3"/><circle class="pollcircle UKIP" cx="156.48703231292518" cy="243.125" r="3"/><circle class="pollcircle UKIP" cx="161.7421343537415" cy="243.125" r="3"/><circle class="pollcircle UKIP" cx="164.36968537414964" cy="215.75" r="3"/><circle class="pollcircle UKIP" cx="166.9972363945578" cy="234" r="3"/><circle class="pollcircle UKIP" cx="169.62478741496597" cy="234" r="3"/><circle class="pollcircle UKIP" cx="172.25233843537416" cy="206.625" r="3"/><circle class="pollcircle UKIP" cx="174.87988945578232" cy="243.125" r="3"/><circle class="pollcircle UKIP" cx="180.13499149659864" cy="215.75" r="3"/><circle class="pollcircle UKIP" cx="182.7625425170068" cy="243.125" r="3"/><circle class="pollcircle UKIP" cx="185.39009353741497" cy="234" r="3"/><circle class="pollcircle UKIP" cx="188.01764455782313" cy="224.87499999999997" r="3"/><circle class="pollcircle UKIP" cx="190.64519557823127" cy="252.25" r="3"/><circle class="pollcircle UKIP" cx="193.27274659863946" cy="224.87499999999997" r="3"/><circle class="pollcircle UKIP" cx="198.52784863945578" cy="206.625" r="3"/><circle class="pollcircle UKIP" cx="201.15539965986395" cy="243.125" r="3"/><circle class="pollcircle UKIP" cx="203.7829506802721" cy="243.125" r="3"/><circle class="pollcircle UKIP" cx="206.41050170068027" cy="243.125" r="3"/><circle class="pollcircle UKIP" cx="209.03805272108843" cy="252.25" r="3"/><circle class="pollcircle UKIP" cx="211.6656037414966" cy="234" r="3"/><circle class="pollcircle UKIP" cx="216.92070578231292" cy="234" r="3"/><circle class="pollcircle UKIP" cx="219.54825680272108" cy="206.625" r="3"/><circle class="pollcircle UKIP" cx="222.17580782312925" cy="234" r="3"/><circle class="pollcircle UKIP" cx="224.8033588435374" cy="252.25" r="3"/><circle class="pollcircle UKIP" cx="227.43090986394557" cy="234" r="3"/><circle class="pollcircle UKIP" cx="230.05846088435374" cy="234" r="3"/><circle class="pollcircle UKIP" cx="235.3135629251701" cy="270.5" r="3"/><circle class="pollcircle UKIP" cx="237.94111394557825" cy="234" r="3"/><circle class="pollcircle UKIP" cx="240.56866496598641" cy="206.625" r="3"/><circle class="pollcircle UKIP" cx="266.84417517006807" cy="224.87499999999997" r="3"/><circle class="pollcircle UKIP" cx="272.09927721088434" cy="270.5" r="3"/><circle class="pollcircle UKIP" cx="274.72682823129253" cy="252.25" r="3"/><circle class="pollcircle UKIP" cx="277.3543792517007" cy="261.375" r="3"/><circle class="pollcircle UKIP" cx="279.98193027210885" cy="243.125" r="3"/><circle class="pollcircle UKIP" cx="282.609481292517" cy="252.25" r="3"/><circle class="pollcircle UKIP" cx="285.2370323129252" cy="215.75" r="3"/><circle class="pollcircle UKIP" cx="290.4921343537415" cy="261.375" r="3"/><circle class="pollcircle UKIP" cx="293.11968537414964" cy="224.87499999999997" r="3"/><circle class="pollcircle UKIP" cx="295.74723639455783" cy="279.625" r="3"/><circle class="pollcircle UKIP" cx="298.37478741496597" cy="243.125" r="3"/><circle class="pollcircle UKIP" cx="301.00233843537416" cy="234" r="3"/><circle class="pollcircle UKIP" cx="303.6298894557823" cy="215.75" r="3"/><circle class="pollcircle UKIP" cx="308.8849914965986" cy="261.375" r="3"/><circle class="pollcircle UKIP" cx="311.5125425170068" cy="234" r="3"/><circle class="pollcircle UKIP" cx="314.140093537415" cy="243.125" r="3"/><circle class="pollcircle UKIP" cx="316.76764455782313" cy="252.25" r="3"/><circle class="pollcircle UKIP" cx="319.3951955782313" cy="224.87499999999997" r="3"/><circle class="pollcircle UKIP" cx="322.02274659863946" cy="243.125" r="3"/><circle class="pollcircle UKIP" cx="327.2778486394558" cy="224.87499999999997" r="3"/><circle class="pollcircle UKIP" cx="329.905399659864" cy="243.125" r="3"/><circle class="pollcircle UKIP" cx="332.5329506802721" cy="252.25" r="3"/><circle class="pollcircle UKIP" cx="335.16050170068024" cy="234" r="3"/><circle class="pollcircle UKIP" cx="337.78805272108843" cy="252.25" r="3"/><circle class="pollcircle UKIP" cx="340.41560374149657" cy="243.125" r="3"/><circle class="pollcircle UKIP" cx="345.6707057823129" cy="243.125" r="3"/><circle class="pollcircle UKIP" cx="348.2982568027211" cy="252.25" r="3"/><circle class="pollcircle UKIP" cx="350.9258078231292" cy="252.25" r="3"/><circle class="pollcircle UKIP" cx="353.55335884353747" cy="261.375" r="3"/><circle class="pollcircle UKIP" cx="356.1809098639456" cy="234" r="3"/><circle class="pollcircle UKIP" cx="358.80846088435374" cy="243.125" r="3"/><circle class="pollcircle UKIP" cx="364.06356292517006" cy="243.125" r="3"/><circle class="pollcircle UKIP" cx="366.69111394557825" cy="252.25" r="3"/><circle class="pollcircle UKIP" cx="369.3186649659864" cy="261.375" r="3"/><circle class="pollcircle UKIP" cx="371.9462159863946" cy="243.125" r="3"/><circle class="pollcircle UKIP" cx="374.5737670068027" cy="234" r="3"/><circle class="pollcircle UKIP" cx="377.2013180272109" cy="243.125" r="3"/><circle class="pollcircle UKIP" cx="382.4564200680272" cy="234" r="3"/><circle class="pollcircle UKIP" cx="385.08397108843536" cy="215.75" r="3"/><circle class="pollcircle UKIP" cx="387.7115221088435" cy="243.125" r="3"/><circle class="pollcircle UKIP" cx="390.3390731292517" cy="252.25" r="3"/><circle class="pollcircle UKIP" cx="392.9666241496598" cy="243.125" r="3"/><circle class="pollcircle UKIP" cx="395.59417517006807" cy="243.125" r="3"/><circle class="pollcircle UKIP" cx="400.8492772108844" cy="243.125" r="3"/><circle class="pollcircle UKIP" cx="403.47682823129253" cy="206.625" r="3"/><circle class="pollcircle UKIP" cx="406.1043792517007" cy="252.25" r="3"/><circle class="pollcircle UKIP" cx="408.73193027210885" cy="243.125" r="3"/><circle class="pollcircle UKIP" cx="411.359481292517" cy="252.25" r="3"/><circle class="pollcircle UKIP" cx="413.9870323129252" cy="252.25" r="3"/><circle class="pollcircle UKIP" cx="419.2421343537415" cy="252.25" r="3"/><circle class="pollcircle UKIP" cx="421.86968537414964" cy="243.125" r="3"/><circle class="pollcircle UKIP" cx="424.49723639455783" cy="252.25" r="3"/><circle class="pollcircle UKIP" cx="427.12478741496597" cy="252.25" r="3"/><circle class="pollcircle UKIP" cx="429.75233843537416" cy="234" r="3"/><circle class="pollcircle UKIP" cx="432.3798894557823" cy="243.125" r="3"/><circle class="pollcircle UKIP" cx="437.6349914965986" cy="243.125" r="3"/><circle class="pollcircle UKIP" cx="440.2625425170068" cy="252.25" r="3"/><circle class="pollcircle UKIP" cx="442.890093537415" cy="243.125" r="3"/><circle class="pollcircle UKIP" cx="445.51764455782313" cy="252.25" r="3"/><circle class="pollcircle UKIP" cx="448.1451955782313" cy="252.25" r="3"/><circle class="pollcircle UKIP" cx="450.77274659863946" cy="252.25" r="3"/><circle class="pollcircle UKIP" cx="456.0278486394558" cy="243.125" r="3"/><circle class="pollcircle UKIP" cx="458.655399659864" cy="224.87499999999997" r="3"/><circle class="pollcircle UKIP" cx="461.2829506802721" cy="270.5" r="3"/><circle class="pollcircle UKIP" cx="463.91050170068024" cy="252.25" r="3"/><circle class="pollcircle UKIP" cx="466.53805272108843" cy="252.25" r="3"/><circle class="pollcircle UKIP" cx="469.16560374149657" cy="252.25" r="3"/><circle class="pollcircle UKIP" cx="471.79315476190476" cy="224.87499999999997" r="3"/><circle class="pollcircle UKIP" cx="474.4207057823129" cy="234" r="3"/><circle class="pollcircle UKIP" cx="477.0482568027211" cy="252.25" r="3"/><circle class="pollcircle UKIP" cx="479.6758078231292" cy="270.5" r="3"/><circle class="pollcircle UKIP" cx="482.30335884353747" cy="261.375" r="3"/><circle class="pollcircle UKIP" cx="484.9309098639456" cy="261.375" r="3"/><circle class="pollcircle UKIP" cx="490.1860119047619" cy="261.375" r="3"/><circle class="pollcircle UKIP" cx="492.81356292517006" cy="270.5" r="3"/><circle class="pollcircle UKIP" cx="495.3316326530612" cy="270.5" r="3"/><circle class="pollcircle UKIP" cx="497.9591836734694" cy="270.5" r="3"/><circle class="pollcircle UKIP" cx="500.58673469387753" cy="243.125" r="3"/><circle class="pollcircle UKIP" cx="503.2142857142857" cy="270.5" r="3"/><circle class="pollcircle UKIP" cx="505.84183673469386" cy="215.75" r="3"/><circle class="pollcircle UKIP" cx="508.46938775510205" cy="261.375" r="3"/><circle class="pollcircle UKIP" cx="513.7244897959183" cy="243.125" r="3"/><circle class="pollcircle UKIP" cx="516.3520408163265" cy="252.25" r="3"/><circle class="pollcircle UKIP" cx="518.9795918367347" cy="270.5" r="3"/><circle class="pollcircle UKIP" cx="521.6071428571429" cy="279.625" r="3"/><circle class="pollcircle UKIP" cx="524.2346938775511" cy="261.375" r="3"/><circle class="pollcircle UKIP" cx="526.8622448979593" cy="261.375" r="3"/><circle class="pollcircle UKIP" cx="529.4897959183673" cy="243.125" r="3"/><circle class="pollcircle UKIP" cx="532.1173469387755" cy="261.375" r="3"/><circle class="pollcircle UKIP" cx="534.7448979591836" cy="261.375" r="3"/><circle class="pollcircle UKIP" cx="537.3724489795918" cy="261.375" r="3"/><circle class="pollcircle UKIP" cx="540" cy="252.25" r="3"/></g><g class="group Green"><circle class="pollcircle Green" cx="25" cy="352.625" r="3"/><circle class="pollcircle Green" cx="27.627551020408163" cy="334.375" r="3"/><circle class="pollcircle Green" cx="32.88265306122449" cy="316.125" r="3"/><circle class="pollcircle Green" cx="35.51020408163265" cy="343.5" r="3"/><circle class="pollcircle Green" cx="38.13775510204081" cy="334.375" r="3"/><circle class="pollcircle Green" cx="40.765306122448976" cy="325.25" r="3"/><circle class="pollcircle Green" cx="43.39285714285714" cy="343.5" r="3"/><circle class="pollcircle Green" cx="46.0204081632653" cy="361.75" r="3"/><circle class="pollcircle Green" cx="51.275510204081634" cy="334.375" r="3"/><circle class="pollcircle Green" cx="53.9030612244898" cy="343.5" r="3"/><circle class="pollcircle Green" cx="56.53061224489796" cy="334.375" r="3"/><circle class="pollcircle Green" cx="59.15816326530612" cy="334.375" r="3"/><circle class="pollcircle Green" cx="61.785714285714285" cy="334.375" r="3"/><circle class="pollcircle Green" cx="64.41326530612244" cy="334.375" r="3"/><circle class="pollcircle Green" cx="69.66836734693877" cy="352.625" r="3"/><circle class="pollcircle Green" cx="72.29591836734694" cy="325.25" r="3"/><circle class="pollcircle Green" cx="74.92346938775509" cy="334.375" r="3"/><circle class="pollcircle Green" cx="77.55102040816327" cy="325.25" r="3"/><circle class="pollcircle Green" cx="80.17857142857142" cy="352.625" r="3"/><circle class="pollcircle Green" cx="82.8061224489796" cy="343.5" r="3"/><circle class="pollcircle Green" cx="88.06122448979592" cy="352.625" r="3"/><circle class="pollcircle Green" cx="90.7982568027211" cy="325.25" r="3"/><circle class="pollcircle Green" cx="93.42580782312925" cy="334.375" r="3"/><circle class="pollcircle Green" cx="96.05335884353741" cy="316.125" r="3"/><circle class="pollcircle Green" cx="98.68090986394557" cy="334.375" r="3"/><circle class="pollcircle Green" cx="101.30846088435375" cy="325.25" r="3"/><circle class="pollcircle Green" cx="103.93601190476191" cy="352.625" r="3"/><circle class="pollcircle Green" cx="106.56356292517006" cy="343.5" r="3"/><circle class="pollcircle Green" cx="109.19111394557822" cy="334.375" r="3"/><circle class="pollcircle Green" cx="111.8186649659864" cy="325.25" r="3"/><circle class="pollcircle Green" cx="114.44621598639456" cy="316.125" r="3"/><circle class="pollcircle Green" cx="117.07376700680273" cy="316.125" r="3"/><circle class="pollcircle Green" cx="119.70131802721087" cy="325.25" r="3"/><circle class="pollcircle Green" cx="124.95642006802721" cy="343.5" r="3"/><circle class="pollcircle Green" cx="127.58397108843538" cy="316.125" r="3"/><circle class="pollcircle Green" cx="130.21152210884355" cy="325.25" r="3"/><circle class="pollcircle Green" cx="132.8390731292517" cy="325.25" r="3"/><circle class="pollcircle Green" cx="135.46662414965988" cy="325.25" r="3"/><circle class="pollcircle Green" cx="138.094175170068" cy="334.375" r="3"/><circle class="pollcircle Green" cx="143.34927721088437" cy="316.125" r="3"/><circle class="pollcircle Green" cx="145.97682823129253" cy="334.375" r="3"/><circle class="pollcircle Green" cx="148.60437925170066" cy="325.25" r="3"/><circle class="pollcircle Green" cx="151.23193027210885" cy="325.25" r="3"/><circle class="pollcircle Green" cx="153.85948129251702" cy="343.5" r="3"/><circle class="pollcircle Green" cx="156.48703231292518" cy="334.375" r="3"/><circle class="pollcircle Green" cx="161.7421343537415" cy="334.375" r="3"/><circle class="pollcircle Green" cx="164.36968537414964" cy="325.25" r="3"/><circle class="pollcircle Green" cx="166.9972363945578" cy="325.25" r="3"/><circle class="pollcircle Green" cx="169.62478741496597" cy="316.125" r="3"/><circle class="pollcircle Green" cx="172.25233843537416" cy="325.25" r="3"/><circle class="pollcircle Green" cx="174.87988945578232" cy="325.25" r="3"/><circle class="pollcircle Green" cx="180.13499149659864" cy="316.125" r="3"/><circle class="pollcircle Green" cx="182.7625425170068" cy="325.25" r="3"/><circle class="pollcircle Green" cx="185.39009353741497" cy="316.125" r="3"/><circle class="pollcircle Green" cx="188.01764455782313" cy="316.125" r="3"/><circle class="pollcircle Green" cx="190.64519557823127" cy="325.25" r="3"/><circle class="pollcircle Green" cx="193.27274659863946" cy="316.125" r="3"/><circle class="pollcircle Green" cx="198.52784863945578" cy="334.375" r="3"/><circle class="pollcircle Green" cx="201.15539965986395" cy="325.25" r="3"/><circle class="pollcircle Green" cx="203.7829506802721" cy="316.125" r="3"/><circle class="pollcircle Green" cx="206.41050170068027" cy="316.125" r="3"/><circle class="pollcircle Green" cx="209.03805272108843" cy="316.125" r="3"/><circle class="pollcircle Green" cx="211.6656037414966" cy="316.125" r="3"/><circle class="pollcircle Green" cx="216.92070578231292" cy="334.375" r="3"/><circle class="pollcircle Green" cx="219.54825680272108" cy="316.125" r="3"/><circle class="pollcircle Green" cx="222.17580782312925" cy="325.25" r="3"/><circle class="pollcircle Green" cx="224.8033588435374" cy="316.125" r="3"/><circle class="pollcircle Green" cx="227.43090986394557" cy="307" r="3"/><circle class="pollcircle Green" cx="230.05846088435374" cy="334.375" r="3"/><circle class="pollcircle Green" cx="235.3135629251701" cy="343.5" r="3"/><circle class="pollcircle Green" cx="237.94111394557825" cy="334.375" r="3"/><circle class="pollcircle Green" cx="240.56866496598641" cy="325.25" r="3"/><circle class="pollcircle Green" cx="266.84417517006807" cy="343.5" r="3"/><circle class="pollcircle Green" cx="272.09927721088434" cy="334.375" r="3"/><circle class="pollcircle Green" cx="274.72682823129253" cy="307" r="3"/><circle class="pollcircle Green" cx="277.3543792517007" cy="307" r="3"/><circle class="pollcircle Green" cx="279.98193027210885" cy="316.125" r="3"/><circle class="pollcircle Green" cx="282.609481292517" cy="316.125" r="3"/><circle class="pollcircle Green" cx="285.2370323129252" cy="325.25" r="3"/><circle class="pollcircle Green" cx="290.4921343537415" cy="307" r="3"/><circle class="pollcircle Green" cx="293.11968537414964" cy="325.25" r="3"/><circle class="pollcircle Green" cx="295.74723639455783" cy="307" r="3"/><circle class="pollcircle Green" cx="298.37478741496597" cy="316.125" r="3"/><circle class="pollcircle Green" cx="301.00233843537416" cy="325.25" r="3"/><circle class="pollcircle Green" cx="303.6298894557823" cy="316.125" r="3"/><circle class="pollcircle Green" cx="308.8849914965986" cy="279.625" r="3"/><circle class="pollcircle Green" cx="311.5125425170068" cy="316.125" r="3"/><circle class="pollcircle Green" cx="314.140093537415" cy="288.75" r="3"/><circle class="pollcircle Green" cx="316.76764455782313" cy="307" r="3"/><circle class="pollcircle Green" cx="319.3951955782313" cy="325.25" r="3"/><circle class="pollcircle Green" cx="322.02274659863946" cy="316.125" r="3"/><circle class="pollcircle Green" cx="327.2778486394558" cy="352.625" r="3"/><circle class="pollcircle Green" cx="329.905399659864" cy="307" r="3"/><circle class="pollcircle Green" cx="332.5329506802721" cy="316.125" r="3"/><circle class="pollcircle Green" cx="335.16050170068024" cy="316.125" r="3"/><circle class="pollcircle Green" cx="337.78805272108843" cy="316.125" r="3"/><circle class="pollcircle Green" cx="340.41560374149657" cy="325.25" r="3"/><circle class="pollcircle Green" cx="345.6707057823129" cy="297.875" r="3"/><circle class="pollcircle Green" cx="348.2982568027211" cy="307" r="3"/><circle class="pollcircle Green" cx="350.9258078231292" cy="316.125" r="3"/><circle class="pollcircle Green" cx="353.55335884353747" cy="316.125" r="3"/><circle class="pollcircle Green" cx="356.1809098639456" cy="334.375" r="3"/><circle class="pollcircle Green" cx="358.80846088435374" cy="307" r="3"/><circle class="pollcircle Green" cx="364.06356292517006" cy="325.25" r="3"/><circle class="pollcircle Green" cx="366.69111394557825" cy="316.125" r="3"/><circle class="pollcircle Green" cx="369.3186649659864" cy="316.125" r="3"/><circle class="pollcircle Green" cx="371.9462159863946" cy="316.125" r="3"/><circle class="pollcircle Green" cx="374.5737670068027" cy="343.5" r="3"/><circle class="pollcircle Green" cx="377.2013180272109" cy="316.125" r="3"/><circle class="pollcircle Green" cx="382.4564200680272" cy="307" r="3"/><circle class="pollcircle Green" cx="385.08397108843536" cy="307" r="3"/><circle class="pollcircle Green" cx="387.7115221088435" cy="316.125" r="3"/><circle class="pollcircle Green" cx="390.3390731292517" cy="325.25" r="3"/><circle class="pollcircle Green" cx="392.9666241496598" cy="325.25" r="3"/><circle class="pollcircle Green" cx="395.59417517006807" cy="316.125" r="3"/><circle class="pollcircle Green" cx="400.8492772108844" cy="307" r="3"/><circle class="pollcircle Green" cx="403.47682823129253" cy="307" r="3"/><circle class="pollcircle Green" cx="406.1043792517007" cy="316.125" r="3"/><circle class="pollcircle Green" cx="408.73193027210885" cy="325.25" r="3"/><circle class="pollcircle Green" cx="411.359481292517" cy="325.25" r="3"/><circle class="pollcircle Green" cx="413.9870323129252" cy="334.375" r="3"/><circle class="pollcircle Green" cx="419.2421343537415" cy="316.125" r="3"/><circle class="pollcircle Green" cx="421.86968537414964" cy="325.25" r="3"/><circle class="pollcircle Green" cx="424.49723639455783" cy="325.25" r="3"/><circle class="pollcircle Green" cx="427.12478741496597" cy="325.25" r="3"/><circle class="pollcircle Green" cx="429.75233843537416" cy="334.375" r="3"/><circle class="pollcircle Green" cx="432.3798894557823" cy="334.375" r="3"/><circle class="pollcircle Green" cx="437.6349914965986" cy="325.25" r="3"/><circle class="pollcircle Green" cx="440.2625425170068" cy="325.25" r="3"/><circle class="pollcircle Green" cx="442.890093537415" cy="325.25" r="3"/><circle class="pollcircle Green" cx="445.51764455782313" cy="334.375" r="3"/><circle class="pollcircle Green" cx="448.1451955782313" cy="316.125" r="3"/><circle class="pollcircle Green" cx="450.77274659863946" cy="334.375" r="3"/><circle class="pollcircle Green" cx="456.0278486394558" cy="334.375" r="3"/><circle class="pollcircle Green" cx="458.655399659864" cy="343.5" r="3"/><circle class="pollcircle Green" cx="461.2829506802721" cy="325.25" r="3"/><circle class="pollcircle Green" cx="463.91050170068024" cy="325.25" r="3"/><circle class="pollcircle Green" cx="466.53805272108843" cy="325.25" r="3"/><circle class="pollcircle Green" cx="469.16560374149657" cy="334.375" r="3"/><circle class="pollcircle Green" cx="471.79315476190476" cy="352.625" r="3"/><circle class="pollcircle Green" cx="474.4207057823129" cy="334.375" r="3"/><circle class="pollcircle Green" cx="477.0482568027211" cy="334.375" r="3"/><circle class="pollcircle Green" cx="479.6758078231292" cy="325.25" r="3"/><circle class="pollcircle Green" cx="482.30335884353747" cy="343.5" r="3"/><circle class="pollcircle Green" cx="484.9309098639456" cy="325.25" r="3"/><circle class="pollcircle Green" cx="490.1860119047619" cy="325.25" r="3"/><circle class="pollcircle Green" cx="492.81356292517006" cy="316.125" r="3"/><circle class="pollcircle Green" cx="495.3316326530612" cy="334.375" r="3"/><circle class="pollcircle Green" cx="497.9591836734694" cy="334.375" r="3"/><circle class="pollcircle Green" cx="500.58673469387753" cy="343.5" r="3"/><circle class="pollcircle Green" cx="503.2142857142857" cy="334.375" r="3"/><circle class="pollcircle Green" cx="505.84183673469386" cy="316.125" r="3"/><circle class="pollcircle Green" cx="508.46938775510205" cy="343.5" r="3"/><circle class="pollcircle Green" cx="513.7244897959183" cy="343.5" r="3"/><circle class="pollcircle Green" cx="516.3520408163265" cy="343.5" r="3"/><circle class="pollcircle Green" cx="518.9795918367347" cy="343.5" r="3"/><circle class="pollcircle Green" cx="521.6071428571429" cy="343.5" r="3"/><circle class="pollcircle Green" cx="524.2346938775511" cy="334.375" r="3"/><circle class="pollcircle Green" cx="526.8622448979593" cy="325.25" r="3"/><circle class="pollcircle Green" cx="529.4897959183673" cy="334.375" r="3"/><circle class="pollcircle Green" cx="532.1173469387755" cy="325.25" r="3"/><circle class="pollcircle Green" cx="534.7448979591836" cy="334.375" r="3"/><circle class="pollcircle Green" cx="537.3724489795918" cy="334.375" r="3"/><circle class="pollcircle Green" cx="540" cy="343.5" r="3"/></g><g class="group Lab"><circle class="pollcircle Lab" cx="25" cy="33.25" r="3"/><circle class="pollcircle Lab" cx="27.627551020408163" cy="69.74999999999994" r="3"/><circle class="pollcircle Lab" cx="32.88265306122449" cy="106.25" r="3"/><circle class="pollcircle Lab" cx="35.51020408163265" cy="78.875" r="3"/><circle class="pollcircle Lab" cx="38.13775510204081" cy="69.74999999999994" r="3"/><circle class="pollcircle Lab" cx="40.765306122448976" cy="69.74999999999994" r="3"/><circle class="pollcircle Lab" cx="43.39285714285714" cy="69.74999999999994" r="3"/><circle class="pollcircle Lab" cx="46.0204081632653" cy="69.74999999999994" r="3"/><circle class="pollcircle Lab" cx="51.275510204081634" cy="51.5" r="3"/><circle class="pollcircle Lab" cx="53.9030612244898" cy="69.74999999999994" r="3"/><circle class="pollcircle Lab" cx="56.53061224489796" cy="69.74999999999994" r="3"/><circle class="pollcircle Lab" cx="59.15816326530612" cy="78.875" r="3"/><circle class="pollcircle Lab" cx="61.785714285714285" cy="88" r="3"/><circle class="pollcircle Lab" cx="64.41326530612244" cy="60.625" r="3"/><circle class="pollcircle Lab" cx="69.66836734693877" cy="97.125" r="3"/><circle class="pollcircle Lab" cx="72.29591836734694" cy="78.875" r="3"/><circle class="pollcircle Lab" cx="74.92346938775509" cy="78.875" r="3"/><circle class="pollcircle Lab" cx="77.55102040816327" cy="78.875" r="3"/><circle class="pollcircle Lab" cx="80.17857142857142" cy="69.74999999999994" r="3"/><circle class="pollcircle Lab" cx="82.8061224489796" cy="78.875" r="3"/><circle class="pollcircle Lab" cx="88.06122448979592" cy="106.25" r="3"/><circle class="pollcircle Lab" cx="90.7982568027211" cy="88" r="3"/><circle class="pollcircle Lab" cx="93.42580782312925" cy="78.875" r="3"/><circle class="pollcircle Lab" cx="96.05335884353741" cy="69.74999999999994" r="3"/><circle class="pollcircle Lab" cx="98.68090986394557" cy="69.74999999999994" r="3"/><circle class="pollcircle Lab" cx="101.30846088435375" cy="88" r="3"/><circle class="pollcircle Lab" cx="103.93601190476191" cy="97.125" r="3"/><circle class="pollcircle Lab" cx="106.56356292517006" cy="115.37499999999994" r="3"/><circle class="pollcircle Lab" cx="109.19111394557822" cy="69.74999999999994" r="3"/><circle class="pollcircle Lab" cx="111.8186649659864" cy="69.74999999999994" r="3"/><circle class="pollcircle Lab" cx="114.44621598639456" cy="78.875" r="3"/><circle class="pollcircle Lab" cx="117.07376700680273" cy="60.625" r="3"/><circle class="pollcircle Lab" cx="119.70131802721087" cy="78.875" r="3"/><circle class="pollcircle Lab" cx="124.95642006802721" cy="88" r="3"/><circle class="pollcircle Lab" cx="127.58397108843538" cy="78.875" r="3"/><circle class="pollcircle Lab" cx="130.21152210884355" cy="69.74999999999994" r="3"/><circle class="pollcircle Lab" cx="132.8390731292517" cy="60.625" r="3"/><circle class="pollcircle Lab" cx="135.46662414965988" cy="60.625" r="3"/><circle class="pollcircle Lab" cx="138.094175170068" cy="78.875" r="3"/><circle class="pollcircle Lab" cx="143.34927721088437" cy="106.25" r="3"/><circle class="pollcircle Lab" cx="145.97682823129253" cy="78.875" r="3"/><circle class="pollcircle Lab" cx="148.60437925170066" cy="69.74999999999994" r="3"/><circle class="pollcircle Lab" cx="151.23193027210885" cy="78.875" r="3"/><circle class="pollcircle Lab" cx="153.85948129251702" cy="78.875" r="3"/><circle class="pollcircle Lab" cx="156.48703231292518" cy="78.875" r="3"/><circle class="pollcircle Lab" cx="161.7421343537415" cy="88" r="3"/><circle class="pollcircle Lab" cx="164.36968537414964" cy="69.74999999999994" r="3"/><circle class="pollcircle Lab" cx="166.9972363945578" cy="78.875" r="3"/><circle class="pollcircle Lab" cx="169.62478741496597" cy="88" r="3"/><circle class="pollcircle Lab" cx="172.25233843537416" cy="97.125" r="3"/><circle class="pollcircle Lab" cx="174.87988945578232" cy="69.74999999999994" r="3"/><circle class="pollcircle Lab" cx="180.13499149659864" cy="60.625" r="3"/><circle class="pollcircle Lab" cx="182.7625425170068" cy="88" r="3"/><circle class="pollcircle Lab" cx="185.39009353741497" cy="78.875" r="3"/><circle class="pollcircle Lab" cx="188.01764455782313" cy="97.125" r="3"/><circle class="pollcircle Lab" cx="190.64519557823127" cy="88" r="3"/><circle class="pollcircle Lab" cx="193.27274659863946" cy="88" r="3"/><circle class="pollcircle Lab" cx="198.52784863945578" cy="51.5" r="3"/><circle class="pollcircle Lab" cx="201.15539965986395" cy="78.875" r="3"/><circle class="pollcircle Lab" cx="203.7829506802721" cy="88" r="3"/><circle class="pollcircle Lab" cx="206.41050170068027" cy="78.875" r="3"/><circle class="pollcircle Lab" cx="209.03805272108843" cy="60.625" r="3"/><circle class="pollcircle Lab" cx="211.6656037414966" cy="88" r="3"/><circle class="pollcircle Lab" cx="216.92070578231292" cy="88" r="3"/><circle class="pollcircle Lab" cx="219.54825680272108" cy="69.74999999999994" r="3"/><circle class="pollcircle Lab" cx="222.17580782312925" cy="69.74999999999994" r="3"/><circle class="pollcircle Lab" cx="224.8033588435374" cy="78.875" r="3"/><circle class="pollcircle Lab" cx="227.43090986394557" cy="60.625" r="3"/><circle class="pollcircle Lab" cx="230.05846088435374" cy="69.74999999999994" r="3"/><circle class="pollcircle Lab" cx="235.3135629251701" cy="60.625" r="3"/><circle class="pollcircle Lab" cx="237.94111394557825" cy="51.5" r="3"/><circle class="pollcircle Lab" cx="240.56866496598641" cy="78.875" r="3"/><circle class="pollcircle Lab" cx="266.84417517006807" cy="78.875" r="3"/><circle class="pollcircle Lab" cx="272.09927721088434" cy="51.5" r="3"/><circle class="pollcircle Lab" cx="274.72682823129253" cy="69.74999999999994" r="3"/><circle class="pollcircle Lab" cx="277.3543792517007" cy="78.875" r="3"/><circle class="pollcircle Lab" cx="279.98193027210885" cy="78.875" r="3"/><circle class="pollcircle Lab" cx="282.609481292517" cy="69.74999999999994" r="3"/><circle class="pollcircle Lab" cx="285.2370323129252" cy="88" r="3"/><circle class="pollcircle Lab" cx="290.4921343537415" cy="42.375" r="3"/><circle class="pollcircle Lab" cx="293.11968537414964" cy="78.875" r="3"/><circle class="pollcircle Lab" cx="295.74723639455783" cy="69.74999999999994" r="3"/><circle class="pollcircle Lab" cx="298.37478741496597" cy="69.74999999999994" r="3"/><circle class="pollcircle Lab" cx="301.00233843537416" cy="69.74999999999994" r="3"/><circle class="pollcircle Lab" cx="303.6298894557823" cy="88" r="3"/><circle class="pollcircle Lab" cx="308.8849914965986" cy="124.49999999999997" r="3"/><circle class="pollcircle Lab" cx="311.5125425170068" cy="88" r="3"/><circle class="pollcircle Lab" cx="314.140093537415" cy="106.25" r="3"/><circle class="pollcircle Lab" cx="316.76764455782313" cy="69.74999999999994" r="3"/><circle class="pollcircle Lab" cx="319.3951955782313" cy="78.875" r="3"/><circle class="pollcircle Lab" cx="322.02274659863946" cy="88" r="3"/><circle class="pollcircle Lab" cx="327.2778486394558" cy="88" r="3"/><circle class="pollcircle Lab" cx="329.905399659864" cy="78.875" r="3"/><circle class="pollcircle Lab" cx="332.5329506802721" cy="78.875" r="3"/><circle class="pollcircle Lab" cx="335.16050170068024" cy="78.875" r="3"/><circle class="pollcircle Lab" cx="337.78805272108843" cy="60.625" r="3"/><circle class="pollcircle Lab" cx="340.41560374149657" cy="60.625" r="3"/><circle class="pollcircle Lab" cx="345.6707057823129" cy="97.125" r="3"/><circle class="pollcircle Lab" cx="348.2982568027211" cy="78.875" r="3"/><circle class="pollcircle Lab" cx="350.9258078231292" cy="78.875" r="3"/><circle class="pollcircle Lab" cx="353.55335884353747" cy="78.875" r="3"/><circle class="pollcircle Lab" cx="356.1809098639456" cy="69.74999999999994" r="3"/><circle class="pollcircle Lab" cx="358.80846088435374" cy="78.875" r="3"/><circle class="pollcircle Lab" cx="364.06356292517006" cy="97.125" r="3"/><circle class="pollcircle Lab" cx="366.69111394557825" cy="78.875" r="3"/><circle class="pollcircle Lab" cx="369.3186649659864" cy="60.625" r="3"/><circle class="pollcircle Lab" cx="371.9462159863946" cy="78.875" r="3"/><circle class="pollcircle Lab" cx="374.5737670068027" cy="60.625" r="3"/><circle class="pollcircle Lab" cx="377.2013180272109" cy="60.625" r="3"/><circle class="pollcircle Lab" cx="382.4564200680272" cy="78.875" r="3"/><circle class="pollcircle Lab" cx="385.08397108843536" cy="88" r="3"/><circle class="pollcircle Lab" cx="387.7115221088435" cy="69.74999999999994" r="3"/><circle class="pollcircle Lab" cx="390.3390731292517" cy="69.74999999999994" r="3"/><circle class="pollcircle Lab" cx="392.9666241496598" cy="78.875" r="3"/><circle class="pollcircle Lab" cx="395.59417517006807" cy="69.74999999999994" r="3"/><circle class="pollcircle Lab" cx="400.8492772108844" cy="88" r="3"/><circle class="pollcircle Lab" cx="403.47682823129253" cy="69.74999999999994" r="3"/><circle class="pollcircle Lab" cx="406.1043792517007" cy="78.875" r="3"/><circle class="pollcircle Lab" cx="408.73193027210885" cy="78.875" r="3"/><circle class="pollcircle Lab" cx="411.359481292517" cy="60.625" r="3"/><circle class="pollcircle Lab" cx="413.9870323129252" cy="78.875" r="3"/><circle class="pollcircle Lab" cx="419.2421343537415" cy="97.125" r="3"/><circle class="pollcircle Lab" cx="421.86968537414964" cy="88" r="3"/><circle class="pollcircle Lab" cx="424.49723639455783" cy="69.74999999999994" r="3"/><circle class="pollcircle Lab" cx="427.12478741496597" cy="69.74999999999994" r="3"/><circle class="pollcircle Lab" cx="429.75233843537416" cy="60.625" r="3"/><circle class="pollcircle Lab" cx="432.3798894557823" cy="69.74999999999994" r="3"/><circle class="pollcircle Lab" cx="437.6349914965986" cy="106.25" r="3"/><circle class="pollcircle Lab" cx="440.2625425170068" cy="97.125" r="3"/><circle class="pollcircle Lab" cx="442.890093537415" cy="97.125" r="3"/><circle class="pollcircle Lab" cx="445.51764455782313" cy="69.74999999999994" r="3"/><circle class="pollcircle Lab" cx="448.1451955782313" cy="88" r="3"/><circle class="pollcircle Lab" cx="450.77274659863946" cy="69.74999999999994" r="3"/><circle class="pollcircle Lab" cx="456.0278486394558" cy="69.74999999999994" r="3"/><circle class="pollcircle Lab" cx="458.655399659864" cy="60.625" r="3"/><circle class="pollcircle Lab" cx="461.2829506802721" cy="51.5" r="3"/><circle class="pollcircle Lab" cx="463.91050170068024" cy="69.74999999999994" r="3"/><circle class="pollcircle Lab" cx="466.53805272108843" cy="78.875" r="3"/><circle class="pollcircle Lab" cx="469.16560374149657" cy="60.625" r="3"/><circle class="pollcircle Lab" cx="471.79315476190476" cy="69.74999999999994" r="3"/><circle class="pollcircle Lab" cx="474.4207057823129" cy="78.875" r="3"/><circle class="pollcircle Lab" cx="477.0482568027211" cy="69.74999999999994" r="3"/><circle class="pollcircle Lab" cx="479.6758078231292" cy="60.625" r="3"/><circle class="pollcircle Lab" cx="482.30335884353747" cy="78.875" r="3"/><circle class="pollcircle Lab" cx="484.9309098639456" cy="69.74999999999994" r="3"/><circle class="pollcircle Lab" cx="490.1860119047619" cy="51.5" r="3"/><circle class="pollcircle Lab" cx="492.81356292517006" cy="69.74999999999994" r="3"/><circle class="pollcircle Lab" cx="495.3316326530612" cy="60.625" r="3"/><circle class="pollcircle Lab" cx="497.9591836734694" cy="51.5" r="3"/><circle class="pollcircle Lab" cx="500.58673469387753" cy="69.74999999999994" r="3"/><circle class="pollcircle Lab" cx="503.2142857142857" cy="78.875" r="3"/><circle class="pollcircle Lab" cx="505.84183673469386" cy="78.875" r="3"/><circle class="pollcircle Lab" cx="508.46938775510205" cy="78.875" r="3"/><circle class="pollcircle Lab" cx="513.7244897959183" cy="78.875" r="3"/><circle class="pollcircle Lab" cx="516.3520408163265" cy="60.625" r="3"/><circle class="pollcircle Lab" cx="518.9795918367347" cy="78.875" r="3"/><circle class="pollcircle Lab" cx="521.6071428571429" cy="69.74999999999994" r="3"/><circle class="pollcircle Lab" cx="524.2346938775511" cy="60.625" r="3"/><circle class="pollcircle Lab" cx="526.8622448979593" cy="69.74999999999994" r="3"/><circle class="pollcircle Lab" cx="529.4897959183673" cy="51.5" r="3"/><circle class="pollcircle Lab" cx="532.1173469387755" cy="88" r="3"/><circle class="pollcircle Lab" cx="534.7448979591836" cy="60.625" r="3"/><circle class="pollcircle Lab" cx="537.3724489795918" cy="60.625" r="3"/><circle class="pollcircle Lab" cx="540" cy="69.74999999999994" r="3"/></g><g class="group LD"><circle class="pollcircle LD" cx="25" cy="307" r="3"/><circle class="pollcircle LD" cx="27.627551020408163" cy="316.125" r="3"/><circle class="pollcircle LD" cx="32.88265306122449" cy="316.125" r="3"/><circle class="pollcircle LD" cx="35.51020408163265" cy="307" r="3"/><circle class="pollcircle LD" cx="38.13775510204081" cy="307" r="3"/><circle class="pollcircle LD" cx="40.765306122448976" cy="316.125" r="3"/><circle class="pollcircle LD" cx="43.39285714285714" cy="307" r="3"/><circle class="pollcircle LD" cx="46.0204081632653" cy="297.875" r="3"/><circle class="pollcircle LD" cx="51.275510204081634" cy="279.625" r="3"/><circle class="pollcircle LD" cx="53.9030612244898" cy="316.125" r="3"/><circle class="pollcircle LD" cx="56.53061224489796" cy="307" r="3"/><circle class="pollcircle LD" cx="59.15816326530612" cy="316.125" r="3"/><circle class="pollcircle LD" cx="61.785714285714285" cy="316.125" r="3"/><circle class="pollcircle LD" cx="64.41326530612244" cy="316.125" r="3"/><circle class="pollcircle LD" cx="69.66836734693877" cy="316.125" r="3"/><circle class="pollcircle LD" cx="72.29591836734694" cy="316.125" r="3"/><circle class="pollcircle LD" cx="74.92346938775509" cy="307" r="3"/><circle class="pollcircle LD" cx="77.55102040816327" cy="316.125" r="3"/><circle class="pollcircle LD" cx="80.17857142857142" cy="297.875" r="3"/><circle class="pollcircle LD" cx="82.8061224489796" cy="325.25" r="3"/><circle class="pollcircle LD" cx="88.06122448979592" cy="297.875" r="3"/><circle class="pollcircle LD" cx="90.7982568027211" cy="307" r="3"/><circle class="pollcircle LD" cx="93.42580782312925" cy="307" r="3"/><circle class="pollcircle LD" cx="96.05335884353741" cy="325.25" r="3"/><circle class="pollcircle LD" cx="98.68090986394557" cy="307" r="3"/><circle class="pollcircle LD" cx="101.30846088435375" cy="316.125" r="3"/><circle class="pollcircle LD" cx="103.93601190476191" cy="297.875" r="3"/><circle class="pollcircle LD" cx="106.56356292517006" cy="288.75" r="3"/><circle class="pollcircle LD" cx="109.19111394557822" cy="307" r="3"/><circle class="pollcircle LD" cx="111.8186649659864" cy="316.125" r="3"/><circle class="pollcircle LD" cx="114.44621598639456" cy="316.125" r="3"/><circle class="pollcircle LD" cx="117.07376700680273" cy="297.875" r="3"/><circle class="pollcircle LD" cx="119.70131802721087" cy="325.25" r="3"/><circle class="pollcircle LD" cx="124.95642006802721" cy="288.75" r="3"/><circle class="pollcircle LD" cx="127.58397108843538" cy="297.875" r="3"/><circle class="pollcircle LD" cx="130.21152210884355" cy="316.125" r="3"/><circle class="pollcircle LD" cx="132.8390731292517" cy="316.125" r="3"/><circle class="pollcircle LD" cx="135.46662414965988" cy="307" r="3"/><circle class="pollcircle LD" cx="138.094175170068" cy="316.125" r="3"/><circle class="pollcircle LD" cx="143.34927721088437" cy="316.125" r="3"/><circle class="pollcircle LD" cx="145.97682823129253" cy="334.375" r="3"/><circle class="pollcircle LD" cx="148.60437925170066" cy="316.125" r="3"/><circle class="pollcircle LD" cx="151.23193027210885" cy="316.125" r="3"/><circle class="pollcircle LD" cx="153.85948129251702" cy="297.875" r="3"/><circle class="pollcircle LD" cx="156.48703231292518" cy="316.125" r="3"/><circle class="pollcircle LD" cx="161.7421343537415" cy="316.125" r="3"/><circle class="pollcircle LD" cx="164.36968537414964" cy="325.25" r="3"/><circle class="pollcircle LD" cx="166.9972363945578" cy="316.125" r="3"/><circle class="pollcircle LD" cx="169.62478741496597" cy="325.25" r="3"/><circle class="pollcircle LD" cx="172.25233843537416" cy="297.875" r="3"/><circle class="pollcircle LD" cx="174.87988945578232" cy="316.125" r="3"/><circle class="pollcircle LD" cx="180.13499149659864" cy="297.875" r="3"/><circle class="pollcircle LD" cx="182.7625425170068" cy="307" r="3"/><circle class="pollcircle LD" cx="185.39009353741497" cy="316.125" r="3"/><circle class="pollcircle LD" cx="188.01764455782313" cy="325.25" r="3"/><circle class="pollcircle LD" cx="190.64519557823127" cy="297.875" r="3"/><circle class="pollcircle LD" cx="193.27274659863946" cy="325.25" r="3"/><circle class="pollcircle LD" cx="198.52784863945578" cy="307" r="3"/><circle class="pollcircle LD" cx="201.15539965986395" cy="325.25" r="3"/><circle class="pollcircle LD" cx="203.7829506802721" cy="307" r="3"/><circle class="pollcircle LD" cx="206.41050170068027" cy="325.25" r="3"/><circle class="pollcircle LD" cx="209.03805272108843" cy="297.875" r="3"/><circle class="pollcircle LD" cx="211.6656037414966" cy="307" r="3"/><circle class="pollcircle LD" cx="216.92070578231292" cy="288.75" r="3"/><circle class="pollcircle LD" cx="219.54825680272108" cy="297.875" r="3"/><circle class="pollcircle LD" cx="222.17580782312925" cy="325.25" r="3"/><circle class="pollcircle LD" cx="224.8033588435374" cy="307" r="3"/><circle class="pollcircle LD" cx="227.43090986394557" cy="325.25" r="3"/><circle class="pollcircle LD" cx="230.05846088435374" cy="325.25" r="3"/><circle class="pollcircle LD" cx="235.3135629251701" cy="297.875" r="3"/><circle class="pollcircle LD" cx="237.94111394557825" cy="325.25" r="3"/><circle class="pollcircle LD" cx="240.56866496598641" cy="325.25" r="3"/><circle class="pollcircle LD" cx="266.84417517006807" cy="307" r="3"/><circle class="pollcircle LD" cx="272.09927721088434" cy="297.875" r="3"/><circle class="pollcircle LD" cx="274.72682823129253" cy="316.125" r="3"/><circle class="pollcircle LD" cx="277.3543792517007" cy="316.125" r="3"/><circle class="pollcircle LD" cx="279.98193027210885" cy="316.125" r="3"/><circle class="pollcircle LD" cx="282.609481292517" cy="307" r="3"/><circle class="pollcircle LD" cx="285.2370323129252" cy="316.125" r="3"/><circle class="pollcircle LD" cx="290.4921343537415" cy="288.75" r="3"/><circle class="pollcircle LD" cx="293.11968537414964" cy="325.25" r="3"/><circle class="pollcircle LD" cx="295.74723639455783" cy="316.125" r="3"/><circle class="pollcircle LD" cx="298.37478741496597" cy="325.25" r="3"/><circle class="pollcircle LD" cx="301.00233843537416" cy="316.125" r="3"/><circle class="pollcircle LD" cx="303.6298894557823" cy="316.125" r="3"/><circle class="pollcircle LD" cx="308.8849914965986" cy="297.875" r="3"/><circle class="pollcircle LD" cx="311.5125425170068" cy="279.625" r="3"/><circle class="pollcircle LD" cx="314.140093537415" cy="307" r="3"/><circle class="pollcircle LD" cx="316.76764455782313" cy="325.25" r="3"/><circle class="pollcircle LD" cx="319.3951955782313" cy="316.125" r="3"/><circle class="pollcircle LD" cx="322.02274659863946" cy="316.125" r="3"/><circle class="pollcircle LD" cx="327.2778486394558" cy="307" r="3"/><circle class="pollcircle LD" cx="329.905399659864" cy="343.5" r="3"/><circle class="pollcircle LD" cx="332.5329506802721" cy="316.125" r="3"/><circle class="pollcircle LD" cx="335.16050170068024" cy="325.25" r="3"/><circle class="pollcircle LD" cx="337.78805272108843" cy="325.25" r="3"/><circle class="pollcircle LD" cx="340.41560374149657" cy="316.125" r="3"/><circle class="pollcircle LD" cx="345.6707057823129" cy="307" r="3"/><circle class="pollcircle LD" cx="348.2982568027211" cy="325.25" r="3"/><circle class="pollcircle LD" cx="350.9258078231292" cy="316.125" r="3"/><circle class="pollcircle LD" cx="353.55335884353747" cy="325.25" r="3"/><circle class="pollcircle LD" cx="356.1809098639456" cy="307" r="3"/><circle class="pollcircle LD" cx="358.80846088435374" cy="316.125" r="3"/><circle class="pollcircle LD" cx="364.06356292517006" cy="307" r="3"/><circle class="pollcircle LD" cx="366.69111394557825" cy="316.125" r="3"/><circle class="pollcircle LD" cx="369.3186649659864" cy="325.25" r="3"/><circle class="pollcircle LD" cx="371.9462159863946" cy="316.125" r="3"/><circle class="pollcircle LD" cx="374.5737670068027" cy="307" r="3"/><circle class="pollcircle LD" cx="377.2013180272109" cy="316.125" r="3"/><circle class="pollcircle LD" cx="382.4564200680272" cy="288.75" r="3"/><circle class="pollcircle LD" cx="385.08397108843536" cy="325.25" r="3"/><circle class="pollcircle LD" cx="387.7115221088435" cy="325.25" r="3"/><circle class="pollcircle LD" cx="390.3390731292517" cy="307" r="3"/><circle class="pollcircle LD" cx="392.9666241496598" cy="297.875" r="3"/><circle class="pollcircle LD" cx="395.59417517006807" cy="325.25" r="3"/><circle class="pollcircle LD" cx="400.8492772108844" cy="297.875" r="3"/><circle class="pollcircle LD" cx="403.47682823129253" cy="307" r="3"/><circle class="pollcircle LD" cx="406.1043792517007" cy="325.25" r="3"/><circle class="pollcircle LD" cx="408.73193027210885" cy="307" r="3"/><circle class="pollcircle LD" cx="411.359481292517" cy="325.25" r="3"/><circle class="pollcircle LD" cx="413.9870323129252" cy="297.875" r="3"/><circle class="pollcircle LD" cx="419.2421343537415" cy="307" r="3"/><circle class="pollcircle LD" cx="421.86968537414964" cy="316.125" r="3"/><circle class="pollcircle LD" cx="424.49723639455783" cy="334.375" r="3"/><circle class="pollcircle LD" cx="427.12478741496597" cy="307" r="3"/><circle class="pollcircle LD" cx="429.75233843537416" cy="325.25" r="3"/><circle class="pollcircle LD" cx="432.3798894557823" cy="307" r="3"/><circle class="pollcircle LD" cx="437.6349914965986" cy="334.375" r="3"/><circle class="pollcircle LD" cx="440.2625425170068" cy="307" r="3"/><circle class="pollcircle LD" cx="442.890093537415" cy="307" r="3"/><circle class="pollcircle LD" cx="445.51764455782313" cy="307" r="3"/><circle class="pollcircle LD" cx="448.1451955782313" cy="307" r="3"/><circle class="pollcircle LD" cx="450.77274659863946" cy="316.125" r="3"/><circle class="pollcircle LD" cx="456.0278486394558" cy="307" r="3"/><circle class="pollcircle LD" cx="458.655399659864" cy="316.125" r="3"/><circle class="pollcircle LD" cx="461.2829506802721" cy="316.125" r="3"/><circle class="pollcircle LD" cx="463.91050170068024" cy="307" r="3"/><circle class="pollcircle LD" cx="466.53805272108843" cy="307" r="3"/><circle class="pollcircle LD" cx="469.16560374149657" cy="307" r="3"/><circle class="pollcircle LD" cx="471.79315476190476" cy="288.75" r="3"/><circle class="pollcircle LD" cx="474.4207057823129" cy="307" r="3"/><circle class="pollcircle LD" cx="477.0482568027211" cy="307" r="3"/><circle class="pollcircle LD" cx="479.6758078231292" cy="307" r="3"/><circle class="pollcircle LD" cx="482.30335884353747" cy="307" r="3"/><circle class="pollcircle LD" cx="484.9309098639456" cy="334.375" r="3"/><circle class="pollcircle LD" cx="490.1860119047619" cy="307" r="3"/><circle class="pollcircle LD" cx="492.81356292517006" cy="325.25" r="3"/><circle class="pollcircle LD" cx="495.3316326530612" cy="307" r="3"/><circle class="pollcircle LD" cx="497.9591836734694" cy="316.125" r="3"/><circle class="pollcircle LD" cx="500.58673469387753" cy="307" r="3"/><circle class="pollcircle LD" cx="503.2142857142857" cy="316.125" r="3"/><circle class="pollcircle LD" cx="505.84183673469386" cy="297.875" r="3"/><circle class="pollcircle LD" cx="508.46938775510205" cy="288.75" r="3"/><circle class="pollcircle LD" cx="513.7244897959183" cy="288.75" r="3"/><circle class="pollcircle LD" cx="516.3520408163265" cy="307" r="3"/><circle class="pollcircle LD" cx="518.9795918367347" cy="307" r="3"/><circle class="pollcircle LD" cx="521.6071428571429" cy="316.125" r="3"/><circle class="pollcircle LD" cx="524.2346938775511" cy="307" r="3"/><circle class="pollcircle LD" cx="526.8622448979593" cy="316.125" r="3"/><circle class="pollcircle LD" cx="529.4897959183673" cy="307" r="3"/><circle class="pollcircle LD" cx="532.1173469387755" cy="297.875" r="3"/><circle class="pollcircle LD" cx="534.7448979591836" cy="307" r="3"/><circle class="pollcircle LD" cx="537.3724489795918" cy="307" r="3"/><circle class="pollcircle LD" cx="540" cy="307" r="3"/></g><g class="group Con"><circle class="pollcircle Con" cx="25" cy="78.875" r="3"/><circle class="pollcircle Con" cx="27.627551020408163" cy="51.5" r="3"/><circle class="pollcircle Con" cx="32.88265306122449" cy="88" r="3"/><circle class="pollcircle Con" cx="35.51020408163265" cy="60.625" r="3"/><circle class="pollcircle Con" cx="38.13775510204081" cy="88" r="3"/><circle class="pollcircle Con" cx="40.765306122448976" cy="78.875" r="3"/><circle class="pollcircle Con" cx="43.39285714285714" cy="69.74999999999994" r="3"/><circle class="pollcircle Con" cx="46.0204081632653" cy="97.125" r="3"/><circle class="pollcircle Con" cx="51.275510204081634" cy="97.125" r="3"/><circle class="pollcircle Con" cx="53.9030612244898" cy="97.125" r="3"/><circle class="pollcircle Con" cx="56.53061224489796" cy="106.25" r="3"/><circle class="pollcircle Con" cx="59.15816326530612" cy="97.125" r="3"/><circle class="pollcircle Con" cx="61.785714285714285" cy="97.125" r="3"/><circle class="pollcircle Con" cx="64.41326530612244" cy="88" r="3"/><circle class="pollcircle Con" cx="69.66836734693877" cy="69.74999999999994" r="3"/><circle class="pollcircle Con" cx="72.29591836734694" cy="97.125" r="3"/><circle class="pollcircle Con" cx="74.92346938775509" cy="88" r="3"/><circle class="pollcircle Con" cx="77.55102040816327" cy="97.125" r="3"/><circle class="pollcircle Con" cx="80.17857142857142" cy="78.875" r="3"/><circle class="pollcircle Con" cx="82.8061224489796" cy="78.875" r="3"/><circle class="pollcircle Con" cx="88.06122448979592" cy="69.74999999999994" r="3"/><circle class="pollcircle Con" cx="90.7982568027211" cy="88" r="3"/><circle class="pollcircle Con" cx="93.42580782312925" cy="88" r="3"/><circle class="pollcircle Con" cx="96.05335884353741" cy="97.125" r="3"/><circle class="pollcircle Con" cx="98.68090986394557" cy="78.875" r="3"/><circle class="pollcircle Con" cx="101.30846088435375" cy="97.125" r="3"/><circle class="pollcircle Con" cx="103.93601190476191" cy="133.62499999999997" r="3"/><circle class="pollcircle Con" cx="106.56356292517006" cy="106.25" r="3"/><circle class="pollcircle Con" cx="109.19111394557822" cy="78.875" r="3"/><circle class="pollcircle Con" cx="111.8186649659864" cy="88" r="3"/><circle class="pollcircle Con" cx="114.44621598639456" cy="88" r="3"/><circle class="pollcircle Con" cx="117.07376700680273" cy="88" r="3"/><circle class="pollcircle Con" cx="119.70131802721087" cy="115.37499999999994" r="3"/><circle class="pollcircle Con" cx="124.95642006802721" cy="97.125" r="3"/><circle class="pollcircle Con" cx="127.58397108843538" cy="88" r="3"/><circle class="pollcircle Con" cx="130.21152210884355" cy="78.875" r="3"/><circle class="pollcircle Con" cx="132.8390731292517" cy="88" r="3"/><circle class="pollcircle Con" cx="135.46662414965988" cy="78.875" r="3"/><circle class="pollcircle Con" cx="138.094175170068" cy="97.125" r="3"/><circle class="pollcircle Con" cx="143.34927721088437" cy="115.37499999999994" r="3"/><circle class="pollcircle Con" cx="145.97682823129253" cy="78.875" r="3"/><circle class="pollcircle Con" cx="148.60437925170066" cy="88" r="3"/><circle class="pollcircle Con" cx="151.23193027210885" cy="69.74999999999994" r="3"/><circle class="pollcircle Con" cx="153.85948129251702" cy="106.25" r="3"/><circle class="pollcircle Con" cx="156.48703231292518" cy="78.875" r="3"/><circle class="pollcircle Con" cx="161.7421343537415" cy="133.62499999999997" r="3"/><circle class="pollcircle Con" cx="164.36968537414964" cy="106.25" r="3"/><circle class="pollcircle Con" cx="166.9972363945578" cy="88" r="3"/><circle class="pollcircle Con" cx="169.62478741496597" cy="78.875" r="3"/><circle class="pollcircle Con" cx="172.25233843537416" cy="106.25" r="3"/><circle class="pollcircle Con" cx="174.87988945578232" cy="88" r="3"/><circle class="pollcircle Con" cx="180.13499149659864" cy="88" r="3"/><circle class="pollcircle Con" cx="182.7625425170068" cy="88" r="3"/><circle class="pollcircle Con" cx="185.39009353741497" cy="88" r="3"/><circle class="pollcircle Con" cx="188.01764455782313" cy="88" r="3"/><circle class="pollcircle Con" cx="190.64519557823127" cy="115.37499999999994" r="3"/><circle class="pollcircle Con" cx="193.27274659863946" cy="88" r="3"/><circle class="pollcircle Con" cx="198.52784863945578" cy="78.875" r="3"/><circle class="pollcircle Con" cx="201.15539965986395" cy="69.74999999999994" r="3"/><circle class="pollcircle Con" cx="203.7829506802721" cy="88" r="3"/><circle class="pollcircle Con" cx="206.41050170068027" cy="78.875" r="3"/><circle class="pollcircle Con" cx="209.03805272108843" cy="69.74999999999994" r="3"/><circle class="pollcircle Con" cx="211.6656037414966" cy="78.875" r="3"/><circle class="pollcircle Con" cx="216.92070578231292" cy="115.37499999999994" r="3"/><circle class="pollcircle Con" cx="219.54825680272108" cy="88" r="3"/><circle class="pollcircle Con" cx="222.17580782312925" cy="124.49999999999997" r="3"/><circle class="pollcircle Con" cx="224.8033588435374" cy="78.875" r="3"/><circle class="pollcircle Con" cx="227.43090986394557" cy="106.25" r="3"/><circle class="pollcircle Con" cx="230.05846088435374" cy="115.37499999999994" r="3"/><circle class="pollcircle Con" cx="235.3135629251701" cy="60.625" r="3"/><circle class="pollcircle Con" cx="237.94111394557825" cy="88" r="3"/><circle class="pollcircle Con" cx="240.56866496598641" cy="115.37499999999994" r="3"/><circle class="pollcircle Con" cx="266.84417517006807" cy="88" r="3"/><circle class="pollcircle Con" cx="272.09927721088434" cy="69.74999999999994" r="3"/><circle class="pollcircle Con" cx="274.72682823129253" cy="97.125" r="3"/><circle class="pollcircle Con" cx="277.3543792517007" cy="78.875" r="3"/><circle class="pollcircle Con" cx="279.98193027210885" cy="88" r="3"/><circle class="pollcircle Con" cx="282.609481292517" cy="78.875" r="3"/><circle class="pollcircle Con" cx="285.2370323129252" cy="88" r="3"/><circle class="pollcircle Con" cx="290.4921343537415" cy="88" r="3"/><circle class="pollcircle Con" cx="293.11968537414964" cy="88" r="3"/><circle class="pollcircle Con" cx="295.74723639455783" cy="88" r="3"/><circle class="pollcircle Con" cx="298.37478741496597" cy="88" r="3"/><circle class="pollcircle Con" cx="301.00233843537416" cy="124.49999999999997" r="3"/><circle class="pollcircle Con" cx="303.6298894557823" cy="97.125" r="3"/><circle class="pollcircle Con" cx="308.8849914965986" cy="115.37499999999994" r="3"/><circle class="pollcircle Con" cx="311.5125425170068" cy="97.125" r="3"/><circle class="pollcircle Con" cx="314.140093537415" cy="88" r="3"/><circle class="pollcircle Con" cx="316.76764455782313" cy="78.875" r="3"/><circle class="pollcircle Con" cx="319.3951955782313" cy="88" r="3"/><circle class="pollcircle Con" cx="322.02274659863946" cy="88" r="3"/><circle class="pollcircle Con" cx="327.2778486394558" cy="97.125" r="3"/><circle class="pollcircle Con" cx="329.905399659864" cy="69.74999999999994" r="3"/><circle class="pollcircle Con" cx="332.5329506802721" cy="69.74999999999994" r="3"/><circle class="pollcircle Con" cx="335.16050170068024" cy="78.875" r="3"/><circle class="pollcircle Con" cx="337.78805272108843" cy="69.74999999999994" r="3"/><circle class="pollcircle Con" cx="340.41560374149657" cy="88" r="3"/><circle class="pollcircle Con" cx="345.6707057823129" cy="97.125" r="3"/><circle class="pollcircle Con" cx="348.2982568027211" cy="133.62499999999997" r="3"/><circle class="pollcircle Con" cx="350.9258078231292" cy="78.875" r="3"/><circle class="pollcircle Con" cx="353.55335884353747" cy="69.74999999999994" r="3"/><circle class="pollcircle Con" cx="356.1809098639456" cy="88" r="3"/><circle class="pollcircle Con" cx="358.80846088435374" cy="88" r="3"/><circle class="pollcircle Con" cx="364.06356292517006" cy="69.74999999999994" r="3"/><circle class="pollcircle Con" cx="366.69111394557825" cy="69.74999999999994" r="3"/><circle class="pollcircle Con" cx="369.3186649659864" cy="78.875" r="3"/><circle class="pollcircle Con" cx="371.9462159863946" cy="88" r="3"/><circle class="pollcircle Con" cx="374.5737670068027" cy="78.875" r="3"/><circle class="pollcircle Con" cx="377.2013180272109" cy="88" r="3"/><circle class="pollcircle Con" cx="382.4564200680272" cy="51.5" r="3"/><circle class="pollcircle Con" cx="385.08397108843536" cy="88" r="3"/><circle class="pollcircle Con" cx="387.7115221088435" cy="78.875" r="3"/><circle class="pollcircle Con" cx="390.3390731292517" cy="88" r="3"/><circle class="pollcircle Con" cx="392.9666241496598" cy="88" r="3"/><circle class="pollcircle Con" cx="395.59417517006807" cy="78.875" r="3"/><circle class="pollcircle Con" cx="400.8492772108844" cy="88" r="3"/><circle class="pollcircle Con" cx="403.47682823129253" cy="124.49999999999997" r="3"/><circle class="pollcircle Con" cx="406.1043792517007" cy="60.625" r="3"/><circle class="pollcircle Con" cx="408.73193027210885" cy="78.875" r="3"/><circle class="pollcircle Con" cx="411.359481292517" cy="69.74999999999994" r="3"/><circle class="pollcircle Con" cx="413.9870323129252" cy="97.125" r="3"/><circle class="pollcircle Con" cx="419.2421343537415" cy="69.74999999999994" r="3"/><circle class="pollcircle Con" cx="421.86968537414964" cy="60.625" r="3"/><circle class="pollcircle Con" cx="424.49723639455783" cy="51.5" r="3"/><circle class="pollcircle Con" cx="427.12478741496597" cy="69.74999999999994" r="3"/><circle class="pollcircle Con" cx="429.75233843537416" cy="97.125" r="3"/><circle class="pollcircle Con" cx="432.3798894557823" cy="69.74999999999994" r="3"/><circle class="pollcircle Con" cx="437.6349914965986" cy="69.74999999999994" r="3"/><circle class="pollcircle Con" cx="440.2625425170068" cy="60.625" r="3"/><circle class="pollcircle Con" cx="442.890093537415" cy="78.875" r="3"/><circle class="pollcircle Con" cx="445.51764455782313" cy="78.875" r="3"/><circle class="pollcircle Con" cx="448.1451955782313" cy="78.875" r="3"/><circle class="pollcircle Con" cx="450.77274659863946" cy="69.74999999999994" r="3"/><circle class="pollcircle Con" cx="456.0278486394558" cy="97.125" r="3"/><circle class="pollcircle Con" cx="458.655399659864" cy="78.875" r="3"/><circle class="pollcircle Con" cx="461.2829506802721" cy="69.74999999999994" r="3"/><circle class="pollcircle Con" cx="463.91050170068024" cy="78.875" r="3"/><circle class="pollcircle Con" cx="466.53805272108843" cy="60.625" r="3"/><circle class="pollcircle Con" cx="469.16560374149657" cy="78.875" r="3"/><circle class="pollcircle Con" cx="471.79315476190476" cy="106.25" r="3"/><circle class="pollcircle Con" cx="474.4207057823129" cy="60.625" r="3"/><circle class="pollcircle Con" cx="477.0482568027211" cy="69.74999999999994" r="3"/><circle class="pollcircle Con" cx="479.6758078231292" cy="60.625" r="3"/><circle class="pollcircle Con" cx="482.30335884353747" cy="88" r="3"/><circle class="pollcircle Con" cx="484.9309098639456" cy="69.74999999999994" r="3"/><circle class="pollcircle Con" cx="490.1860119047619" cy="88" r="3"/><circle class="pollcircle Con" cx="492.81356292517006" cy="51.5" r="3"/><circle class="pollcircle Con" cx="495.3316326530612" cy="78.875" r="3"/><circle class="pollcircle Con" cx="497.9591836734694" cy="60.625" r="3"/><circle class="pollcircle Con" cx="500.58673469387753" cy="88" r="3"/><circle class="pollcircle Con" cx="503.2142857142857" cy="42.375" r="3"/><circle class="pollcircle Con" cx="505.84183673469386" cy="78.875" r="3"/><circle class="pollcircle Con" cx="508.46938775510205" cy="69.74999999999994" r="3"/><circle class="pollcircle Con" cx="513.7244897959183" cy="97.125" r="3"/><circle class="pollcircle Con" cx="516.3520408163265" cy="78.875" r="3"/><circle class="pollcircle Con" cx="518.9795918367347" cy="69.74999999999994" r="3"/><circle class="pollcircle Con" cx="521.6071428571429" cy="60.625" r="3"/><circle class="pollcircle Con" cx="524.2346938775511" cy="78.875" r="3"/><circle class="pollcircle Con" cx="526.8622448979593" cy="69.74999999999994" r="3"/><circle class="pollcircle Con" cx="529.4897959183673" cy="78.875" r="3"/><circle class="pollcircle Con" cx="532.1173469387755" cy="78.875" r="3"/><circle class="pollcircle Con" cx="534.7448979591836" cy="78.875" r="3"/><circle class="pollcircle Con" cx="537.3724489795918" cy="78.875" r="3"/><circle class="pollcircle Con" cx="540" cy="69.74999999999994" r="3"/></g><path class="pinkline" d="M25,243.77L27.63,247.15L32.88,245.94L35.51,248.42L38.14,248.48L40.77,248.87L43.39,242.87L46.02,229.61L51.28,227.74L53.9,226.67L56.53,224.84L59.16,224.63L61.79,221.07L64.41,219.76L69.67,220.83L72.3,225.03L74.92,227.76L77.55,230.68L80.18,236.38L82.81,235.2L88.06,231.15L90.8,228.56L93.43,227.16L96.05,225.18L98.68,230.55L101.31,231.12L103.94,221.63L106.56,225.54L109.19,228.03L111.82,230.08L114.45,228.74L117.07,235.29L119.7,228.43L124.96,230.97L127.58,232.46L130.21,234.96L132.84,237.95L135.47,244.91L138.09,237.91L143.35,241.03L145.98,237.6L148.6,237.69L151.23,238.34L153.86,239.22L156.49,239.46L161.74,235.35L164.37,228.32L167,227.12L169.62,227.31L172.25,226.72L174.88,228.09L180.13,232L182.76,233.72L185.39,233.57L188.02,232.92L190.65,234.83L193.27,234.46L198.53,229.98L201.16,231.12L203.78,233.97L206.41,235.53L209.04,239.58L211.67,238.5L216.92,243.05L219.55,241.2L222.18,241.26L224.8,244.14L227.43,246.09L230.06,236.06L235.31,239.91L237.94,240.03L240.57,235.46L266.84,229.93L272.1,239.23L274.73,245.63L277.35,252.42L279.98,256.73L282.61,246.68L285.24,237.56L290.49,240.32L293.12,237.43L295.75,241.17L298.37,244.8L301,237.12L303.63,234.63L308.88,234.19L311.51,238.21L314.14,240.62L316.77,242.36L319.4,246.74L322.02,248.39L327.28,235.05L329.91,236.59L332.53,237.41L335.16,236.51L337.79,244.12L340.42,244.03L345.67,242.79L348.3,240.48L350.93,241.19L353.55,243.16L356.18,242.02L358.81,243.56L364.06,245.25L366.69,246.27L369.32,254.11L371.95,254.67L374.57,253.33L377.2,252.44L382.46,251.43L385.08,245.24L387.71,245.51L390.34,245.83L392.97,243.06L395.59,244.84L400.85,245.93L403.48,248.35L406.1,248.92L408.73,249.41L411.36,250.24L413.99,248.24L419.24,250.93L421.87,249.05L424.5,249.03L427.12,249.27L429.75,245.85L432.38,246.6L437.63,245.05L440.26,245.3L442.89,244.98L445.52,249.06L448.15,244.14L450.77,243.56L456.03,248.57L458.66,247.97L461.28,252.3L463.91,253.49L466.54,252.41L469.17,251.86L471.79,246.77L474.42,252.72L477.05,253.93L479.68,256.52L482.3,255.68L484.93,251.33L490.19,252.82L492.81,254.89L495.33,253.87L497.96,258.7L500.59,258.72L503.21,256.51L505.84,248.45L508.47,249.69L513.72,247.08L516.35,241.6L518.98,244.77L521.61,249.15L524.23,251.26L526.86,253.14L529.49,258.56L532.12,260.46L534.74,262.42L537.37,266.96L540,261.72"/><path class="pinkline" d="M25,340.11L27.63,339.09L32.88,337.48L35.51,338.02L38.14,337.55L40.77,335.67L43.39,338.51L46.02,340.54L51.28,343.52L53.9,343.76L56.53,341.78L59.16,340.47L61.79,337.48L64.41,336.44L69.67,333.33L72.3,332.23L74.92,332.1L77.55,330.58L80.18,331.3L82.81,333.48L88.06,337.54L90.8,336.47L93.43,337.28L96.05,334.41L98.68,331.35L101.31,329.35L103.94,331.43L106.56,330.82L109.19,331.9L111.82,331.62L114.45,330.7L117.07,330.82L119.7,331.72L124.96,330.82L127.58,328.93L130.21,328.07L132.84,327.5L135.47,328.09L138.09,331.26L143.35,330.8L145.98,329.79L148.6,329.43L151.23,328.62L153.86,329.59L156.49,330.41L161.74,330.83L164.37,329.65L167,328.68L169.62,326.26L172.25,326.83L174.88,326.46L180.13,326.46L182.76,326.16L185.39,324.93L188.02,323.68L190.65,323.43L193.27,322.76L198.53,325.68L201.16,326.4L203.78,326.03L206.41,324.3L209.04,326.62L211.67,329.76L216.92,330.53L219.55,324.29L222.18,324.66L224.8,321.52L227.43,320.02L230.06,325.04L235.31,329.01L237.94,330.41L240.57,330.04L266.84,336.78L272.1,336.03L274.73,327.88L277.35,322.77L279.98,316.08L282.61,319.88L285.24,323.46L290.49,324.15L293.12,325.34L295.75,322.5L298.37,319.94L301,321.2L303.63,320.55L308.88,319.86L311.51,316.48L314.14,310.77L316.77,309.38L319.4,309.9L322.02,310.55L327.28,316.2L329.91,317.09L332.53,317.98L335.16,317.16L337.79,318.32L340.42,319.5L345.67,317.86L348.3,320.93L350.93,319.77L353.55,318.95L356.18,321.8L358.81,318.31L364.06,322.61L366.69,322.85L369.32,319.95L371.95,318.15L374.57,323L377.2,321.9L382.46,321.82L385.08,319.26L387.71,317.46L390.34,317.69L392.97,319.4L395.59,320.26L400.85,319.62L403.48,321.28L406.1,320.13L408.73,320.21L411.36,321.43L413.99,323.79L419.24,324.15L421.87,325.8L424.5,326.31L427.12,326.31L429.75,324.4L432.38,324.27L437.63,321.63L440.26,321.6L442.89,321.1L445.52,323.02L448.15,324.57L450.77,328.57L456.03,328.71L458.66,329.41L461.28,329.51L463.91,329.37L466.54,328.34L469.17,330.09L471.79,331.82L474.42,331.19L477.05,331.85L479.68,331.65L482.3,330.46L484.93,329.79L490.19,329.09L492.81,330.17L495.33,332.12L497.96,331.61L500.59,332.98L503.21,334.76L505.84,335.97L508.47,336.36L513.72,337.55L516.35,338.2L518.98,338.94L521.61,337.82L524.23,336.98L526.86,335.64L529.49,332.43L532.12,331.08L534.74,330.23L537.37,327.03L540,330.95"/><path class="pinkline" d="M25,55.05L27.63,55.47L32.88,57.66L35.51,61.6L38.14,64.46L40.77,68.15L43.39,66.48L46.02,70.35L51.28,68.93L53.9,69.46L56.53,71.52L59.16,72.08L61.79,73.41L64.41,73.3L69.67,75.16L72.3,75.44L74.92,75.02L77.55,75.08L80.18,73.1L82.81,73.27L88.06,78.07L90.8,79.79L93.43,80.59L96.05,80.66L98.68,79.96L101.31,78.22L103.94,80.77L106.56,84.06L109.19,82.86L111.82,82.16L114.45,82.25L117.07,78.15L119.7,73.69L124.96,79.52L127.58,84.79L130.21,84.61L132.84,82.39L135.47,80.22L138.09,77.82L143.35,76.75L145.98,76.48L148.6,76.34L151.23,77.72L153.86,74.95L156.49,72.95L161.74,71.99L164.37,72.59L167,73.69L169.62,75.75L172.25,76.72L174.88,76.52L180.13,79.78L182.76,81.46L185.39,81.55L188.02,83.25L190.65,79.75L193.27,79.87L198.53,79.12L201.16,78.32L203.78,79.15L206.41,79.42L209.04,76.03L211.67,75.4L216.92,73.74L219.55,75.89L222.18,76.15L224.8,76.56L227.43,72.39L230.06,70.41L235.31,67.15L237.94,64.91L240.57,65.41L266.84,69.73L272.1,66.1L274.73,67.73L277.35,69.75L279.98,69.84L282.61,73.34L285.24,75.24L290.49,77.68L293.12,77.74L295.75,77.45L298.37,78.55L301,74.61L303.63,75.84L308.88,79.09L311.51,83.74L314.14,87.62L316.77,87.2L319.4,82.43L322.02,81.89L327.28,84.92L329.91,76.01L332.53,76.85L335.16,77.69L337.79,71.77L340.42,67.42L345.67,70.93L348.3,73L350.93,73.82L353.55,74.96L356.18,75.81L358.81,75.95L364.06,77.81L366.69,77.81L369.32,72.54L371.95,73.07L374.57,68.46L377.2,66.5L382.46,74.13L385.08,74.86L387.71,74.98L390.34,75.6L392.97,78.48L395.59,76.59L400.85,74.14L403.48,75.96L406.1,76.52L408.73,76.3L411.36,74.43L413.99,75.58L419.24,76.28L421.87,76.94L424.5,76.19L427.12,75.67L429.75,76.06L432.38,74.69L437.63,77.5L440.26,80.82L442.89,84.3L445.52,81.62L448.15,80.76L450.77,75.21L456.03,75.37L458.66,75.2L461.28,72L463.91,71.54L466.54,73.23L469.17,69.37L471.79,69.73L474.42,70.28L477.05,72.3L479.68,70.6L482.3,71.8L484.93,72.33L490.19,69.6L492.81,71.6L495.33,72.21L497.96,69.4L500.59,69.02L503.21,70.04L505.84,70.77L508.47,71.99L513.72,74.14L516.35,74.07L518.98,73.94L521.61,67.48L524.23,65.78L526.86,66.11L529.49,66.75L532.12,68.72L534.74,69L537.37,69.84L540,70.48"/><path class="pinkline" d="M25,312.47L27.63,313.61L32.88,314.97L35.51,313.82L38.14,312.57L40.77,312.86L43.39,305.33L46.02,304.73L51.28,299.49L53.9,301.21L56.53,302.88L59.16,304.4L61.79,306.2L64.41,309.12L69.67,308.75L72.3,309.51L74.92,309.05L77.55,309.41L80.18,310.4L82.81,313.57L88.06,312.41L90.8,312.05L93.43,310.86L96.05,312.93L98.68,311.01L101.31,312.7L103.94,310.78L106.56,306.71L109.19,306.01L111.82,306.31L114.45,306.46L117.07,304.51L119.7,309.74L124.96,303.19L127.58,304.26L130.21,304.86L132.84,305.46L135.47,304.94L138.09,308.8L143.35,308.82L145.98,312.63L148.6,313.02L151.23,314.08L153.86,314.31L156.49,314.74L161.74,311.42L164.37,312.68L167,313.41L169.62,315.19L172.25,314.01L174.88,314.59L180.13,310.64L182.76,309.87L185.39,310.21L188.02,311.69L190.65,311.79L193.27,314.54L198.53,314.44L201.16,315.75L203.78,313.68L206.41,315.27L209.04,313.39L211.67,312.43L216.92,303.08L219.55,306.09L222.18,301.59L224.8,301.84L227.43,306.32L230.06,307.67L235.31,306.15L237.94,307.8L240.57,311.79L266.84,314.18L272.1,308.75L274.73,308.62L277.35,309.33L279.98,311.62L282.61,314.28L285.24,314.3L290.49,309.39L293.12,311L295.75,312.06L298.37,312.36L301,315.72L303.63,315.14L308.88,312.27L311.51,306.68L314.14,305.62L316.77,307.3L319.4,306.07L322.02,306.77L327.28,311.54L329.91,317.57L332.53,317.24L335.16,319.53L337.79,317.93L340.42,320.62L345.67,319.27L348.3,316L350.93,316.71L353.55,317.81L356.18,314.56L358.81,313.64L364.06,310.69L366.69,310.1L369.32,313.06L371.95,314.48L374.57,313.6L377.2,314.37L382.46,304.84L385.08,307.8L387.71,309.3L390.34,309.46L392.97,306.98L395.59,310.19L400.85,310.98L403.48,305.36L406.1,307.96L408.73,308.33L411.36,309.77L413.99,308.18L419.24,310.76L421.87,311.35L424.5,313.75L427.12,313.49L429.75,314.16L432.38,314.04L437.63,314.28L440.26,311.72L442.89,311.71L445.52,311.13L448.15,310.59L450.77,312.52L456.03,311.41L458.66,312.58L461.28,313.1L463.91,311.94L466.54,309.88L469.17,309.83L471.79,307.47L474.42,304.5L477.05,303.97L479.68,303.49L482.3,304.61L484.93,309.22L490.19,310.05L492.81,310.89L495.33,310.91L497.96,311.78L500.59,310.18L503.21,309.84L505.84,308.97L508.47,306.83L513.72,304.51L516.35,304.24L518.98,299.37L521.61,300.94L524.23,302.55L526.86,304.01L529.49,306.33L532.12,306.23L534.74,306.94L537.37,307.73L540,307.02"/><path class="pinkline" d="M25,87.14L27.63,81.69L32.88,82.3L35.51,78.49L38.14,77.92L40.77,76.7L43.39,88.95L46.02,91.97L51.28,96.74L53.9,97.33L56.53,98.97L59.16,98.11L61.79,95.84L64.41,95.4L69.67,97.42L72.3,96.35L74.92,94.13L77.55,93.84L80.18,89.19L82.81,85.1L88.06,85.03L90.8,84.8L93.43,85.24L96.05,87.9L98.68,85.88L101.31,85.32L103.94,91.63L106.56,92.77L109.19,91.45L111.82,91.4L114.45,92.05L117.07,89.74L119.7,90.64L124.96,93.76L127.58,93.38L130.21,91.7L132.84,90.69L135.47,86.12L138.09,87.78L143.35,88.26L145.98,85.6L148.6,86.22L151.23,84.41L153.86,82.05L156.49,79.08L161.74,89.3L164.37,95.79L167,96.98L169.62,96.03L172.25,98.04L174.88,96.87L180.13,97.4L182.76,96.75L185.39,96.89L188.02,96.38L190.65,95.56L193.27,92.48L198.53,92.38L201.16,89.97L203.78,88.61L206.41,86.94L209.04,83.02L211.67,81.78L216.92,84.67L219.55,91.49L222.18,95.68L224.8,94.7L227.43,93.03L230.06,98.16L235.31,93.13L237.94,91.75L240.57,94.16L266.84,90.41L272.1,86.16L274.73,87.63L277.35,83.41L279.98,83.48L282.61,89.91L285.24,91.66L290.49,88.04L293.12,88.16L295.75,88.95L298.37,84.15L301,91.28L303.63,92.45L308.88,92.72L311.51,95.22L314.14,95.59L316.77,94.04L319.4,91.13L322.02,90.07L327.28,88.84L329.91,90.23L332.53,88.39L335.16,87.07L337.79,81.98L340.42,82.17L345.67,84.37L348.3,89.36L350.93,90.23L353.55,89.5L356.18,91.99L358.81,91.6L364.06,84.18L366.69,81.3L369.32,79.42L371.95,78.9L374.57,83L377.2,84.4L382.46,87.32L385.08,91.63L387.71,90.28L390.34,89.78L392.97,90.51L395.59,85.32L400.85,86.71L403.48,85.81L406.1,82.54L408.73,81.73L411.36,80.5L413.99,79.7L419.24,76.75L421.87,75.56L424.5,73.19L427.12,72.1L429.75,78.08L432.38,74.95L437.63,76.99L440.26,77.57L442.89,77.42L445.52,74.3L448.15,80.77L450.77,80.01L456.03,78.85L458.66,77.82L461.28,74.92L463.91,75.19L466.54,73.07L469.17,72.63L471.79,77.53L474.42,78.74L477.05,77.64L479.68,77.46L482.3,76.61L484.93,73.86L490.19,74.02L492.81,70.43L495.33,69.7L497.96,67.02L500.59,66.66L503.21,64.04L505.84,70.83L508.47,71.03L513.72,74.82L516.35,80.53L518.98,81.71L521.61,81.83L524.23,80.27L526.86,78.78L529.49,75.65L532.12,74.19L534.74,72.42L537.37,70.69L540,71.13"/><path class="partyline UKIP" d="M25,243.77L27.63,247.15L32.88,245.94L35.51,248.42L38.14,248.48L40.77,248.87L43.39,242.87L46.02,229.61L51.28,227.74L53.9,226.67L56.53,224.84L59.16,224.63L61.79,221.07L64.41,219.76L69.67,220.83L72.3,225.03L74.92,227.76L77.55,230.68L80.18,236.38L82.81,235.2L88.06,231.15L90.8,228.56L93.43,227.16L96.05,225.18L98.68,230.55L101.31,231.12L103.94,221.63L106.56,225.54L109.19,228.03L111.82,230.08L114.45,228.74L117.07,235.29L119.7,228.43L124.96,230.97L127.58,232.46L130.21,234.96L132.84,237.95L135.47,244.91L138.09,237.91L143.35,241.03L145.98,237.6L148.6,237.69L151.23,238.34L153.86,239.22L156.49,239.46L161.74,235.35L164.37,228.32L167,227.12L169.62,227.31L172.25,226.72L174.88,228.09L180.13,232L182.76,233.72L185.39,233.57L188.02,232.92L190.65,234.83L193.27,234.46L198.53,229.98L201.16,231.12L203.78,233.97L206.41,235.53L209.04,239.58L211.67,238.5L216.92,243.05L219.55,241.2L222.18,241.26L224.8,244.14L227.43,246.09L230.06,236.06L235.31,239.91L237.94,240.03L240.57,235.46L266.84,229.93L272.1,239.23L274.73,245.63L277.35,252.42L279.98,256.73L282.61,246.68L285.24,237.56L290.49,240.32L293.12,237.43L295.75,241.17L298.37,244.8L301,237.12L303.63,234.63L308.88,234.19L311.51,238.21L314.14,240.62L316.77,242.36L319.4,246.74L322.02,248.39L327.28,235.05L329.91,236.59L332.53,237.41L335.16,236.51L337.79,244.12L340.42,244.03L345.67,242.79L348.3,240.48L350.93,241.19L353.55,243.16L356.18,242.02L358.81,243.56L364.06,245.25L366.69,246.27L369.32,254.11L371.95,254.67L374.57,253.33L377.2,252.44L382.46,251.43L385.08,245.24L387.71,245.51L390.34,245.83L392.97,243.06L395.59,244.84L400.85,245.93L403.48,248.35L406.1,248.92L408.73,249.41L411.36,250.24L413.99,248.24L419.24,250.93L421.87,249.05L424.5,249.03L427.12,249.27L429.75,245.85L432.38,246.6L437.63,245.05L440.26,245.3L442.89,244.98L445.52,249.06L448.15,244.14L450.77,243.56L456.03,248.57L458.66,247.97L461.28,252.3L463.91,253.49L466.54,252.41L469.17,251.86L471.79,246.77L474.42,252.72L477.05,253.93L479.68,256.52L482.3,255.68L484.93,251.33L490.19,252.82L492.81,254.89L495.33,253.87L497.96,258.7L500.59,258.72L503.21,256.51L505.84,248.45L508.47,249.69L513.72,247.08L516.35,241.6L518.98,244.77L521.61,249.15L524.23,251.26L526.86,253.14L529.49,258.56L532.12,260.46L534.74,262.42L537.37,266.96L540,261.72"/><path class="partyline Green" d="M25,340.11L27.63,339.09L32.88,337.48L35.51,338.02L38.14,337.55L40.77,335.67L43.39,338.51L46.02,340.54L51.28,343.52L53.9,343.76L56.53,341.78L59.16,340.47L61.79,337.48L64.41,336.44L69.67,333.33L72.3,332.23L74.92,332.1L77.55,330.58L80.18,331.3L82.81,333.48L88.06,337.54L90.8,336.47L93.43,337.28L96.05,334.41L98.68,331.35L101.31,329.35L103.94,331.43L106.56,330.82L109.19,331.9L111.82,331.62L114.45,330.7L117.07,330.82L119.7,331.72L124.96,330.82L127.58,328.93L130.21,328.07L132.84,327.5L135.47,328.09L138.09,331.26L143.35,330.8L145.98,329.79L148.6,329.43L151.23,328.62L153.86,329.59L156.49,330.41L161.74,330.83L164.37,329.65L167,328.68L169.62,326.26L172.25,326.83L174.88,326.46L180.13,326.46L182.76,326.16L185.39,324.93L188.02,323.68L190.65,323.43L193.27,322.76L198.53,325.68L201.16,326.4L203.78,326.03L206.41,324.3L209.04,326.62L211.67,329.76L216.92,330.53L219.55,324.29L222.18,324.66L224.8,321.52L227.43,320.02L230.06,325.04L235.31,329.01L237.94,330.41L240.57,330.04L266.84,336.78L272.1,336.03L274.73,327.88L277.35,322.77L279.98,316.08L282.61,319.88L285.24,323.46L290.49,324.15L293.12,325.34L295.75,322.5L298.37,319.94L301,321.2L303.63,320.55L308.88,319.86L311.51,316.48L314.14,310.77L316.77,309.38L319.4,309.9L322.02,310.55L327.28,316.2L329.91,317.09L332.53,317.98L335.16,317.16L337.79,318.32L340.42,319.5L345.67,317.86L348.3,320.93L350.93,319.77L353.55,318.95L356.18,321.8L358.81,318.31L364.06,322.61L366.69,322.85L369.32,319.95L371.95,318.15L374.57,323L377.2,321.9L382.46,321.82L385.08,319.26L387.71,317.46L390.34,317.69L392.97,319.4L395.59,320.26L400.85,319.62L403.48,321.28L406.1,320.13L408.73,320.21L411.36,321.43L413.99,323.79L419.24,324.15L421.87,325.8L424.5,326.31L427.12,326.31L429.75,324.4L432.38,324.27L437.63,321.63L440.26,321.6L442.89,321.1L445.52,323.02L448.15,324.57L450.77,328.57L456.03,328.71L458.66,329.41L461.28,329.51L463.91,329.37L466.54,328.34L469.17,330.09L471.79,331.82L474.42,331.19L477.05,331.85L479.68,331.65L482.3,330.46L484.93,329.79L490.19,329.09L492.81,330.17L495.33,332.12L497.96,331.61L500.59,332.98L503.21,334.76L505.84,335.97L508.47,336.36L513.72,337.55L516.35,338.2L518.98,338.94L521.61,337.82L524.23,336.98L526.86,335.64L529.49,332.43L532.12,331.08L534.74,330.23L537.37,327.03L540,330.95"/><path class="partyline Lab" d="M25,55.05L27.63,55.47L32.88,57.66L35.51,61.6L38.14,64.46L40.77,68.15L43.39,66.48L46.02,70.35L51.28,68.93L53.9,69.46L56.53,71.52L59.16,72.08L61.79,73.41L64.41,73.3L69.67,75.16L72.3,75.44L74.92,75.02L77.55,75.08L80.18,73.1L82.81,73.27L88.06,78.07L90.8,79.79L93.43,80.59L96.05,80.66L98.68,79.96L101.31,78.22L103.94,80.77L106.56,84.06L109.19,82.86L111.82,82.16L114.45,82.25L117.07,78.15L119.7,73.69L124.96,79.52L127.58,84.79L130.21,84.61L132.84,82.39L135.47,80.22L138.09,77.82L143.35,76.75L145.98,76.48L148.6,76.34L151.23,77.72L153.86,74.95L156.49,72.95L161.74,71.99L164.37,72.59L167,73.69L169.62,75.75L172.25,76.72L174.88,76.52L180.13,79.78L182.76,81.46L185.39,81.55L188.02,83.25L190.65,79.75L193.27,79.87L198.53,79.12L201.16,78.32L203.78,79.15L206.41,79.42L209.04,76.03L211.67,75.4L216.92,73.74L219.55,75.89L222.18,76.15L224.8,76.56L227.43,72.39L230.06,70.41L235.31,67.15L237.94,64.91L240.57,65.41L266.84,69.73L272.1,66.1L274.73,67.73L277.35,69.75L279.98,69.84L282.61,73.34L285.24,75.24L290.49,77.68L293.12,77.74L295.75,77.45L298.37,78.55L301,74.61L303.63,75.84L308.88,79.09L311.51,83.74L314.14,87.62L316.77,87.2L319.4,82.43L322.02,81.89L327.28,84.92L329.91,76.01L332.53,76.85L335.16,77.69L337.79,71.77L340.42,67.42L345.67,70.93L348.3,73L350.93,73.82L353.55,74.96L356.18,75.81L358.81,75.95L364.06,77.81L366.69,77.81L369.32,72.54L371.95,73.07L374.57,68.46L377.2,66.5L382.46,74.13L385.08,74.86L387.71,74.98L390.34,75.6L392.97,78.48L395.59,76.59L400.85,74.14L403.48,75.96L406.1,76.52L408.73,76.3L411.36,74.43L413.99,75.58L419.24,76.28L421.87,76.94L424.5,76.19L427.12,75.67L429.75,76.06L432.38,74.69L437.63,77.5L440.26,80.82L442.89,84.3L445.52,81.62L448.15,80.76L450.77,75.21L456.03,75.37L458.66,75.2L461.28,72L463.91,71.54L466.54,73.23L469.17,69.37L471.79,69.73L474.42,70.28L477.05,72.3L479.68,70.6L482.3,71.8L484.93,72.33L490.19,69.6L492.81,71.6L495.33,72.21L497.96,69.4L500.59,69.02L503.21,70.04L505.84,70.77L508.47,71.99L513.72,74.14L516.35,74.07L518.98,73.94L521.61,67.48L524.23,65.78L526.86,66.11L529.49,66.75L532.12,68.72L534.74,69L537.37,69.84L540,70.48"/><path class="partyline LD" d="M25,312.47L27.63,313.61L32.88,314.97L35.51,313.82L38.14,312.57L40.77,312.86L43.39,305.33L46.02,304.73L51.28,299.49L53.9,301.21L56.53,302.88L59.16,304.4L61.79,306.2L64.41,309.12L69.67,308.75L72.3,309.51L74.92,309.05L77.55,309.41L80.18,310.4L82.81,313.57L88.06,312.41L90.8,312.05L93.43,310.86L96.05,312.93L98.68,311.01L101.31,312.7L103.94,310.78L106.56,306.71L109.19,306.01L111.82,306.31L114.45,306.46L117.07,304.51L119.7,309.74L124.96,303.19L127.58,304.26L130.21,304.86L132.84,305.46L135.47,304.94L138.09,308.8L143.35,308.82L145.98,312.63L148.6,313.02L151.23,314.08L153.86,314.31L156.49,314.74L161.74,311.42L164.37,312.68L167,313.41L169.62,315.19L172.25,314.01L174.88,314.59L180.13,310.64L182.76,309.87L185.39,310.21L188.02,311.69L190.65,311.79L193.27,314.54L198.53,314.44L201.16,315.75L203.78,313.68L206.41,315.27L209.04,313.39L211.67,312.43L216.92,303.08L219.55,306.09L222.18,301.59L224.8,301.84L227.43,306.32L230.06,307.67L235.31,306.15L237.94,307.8L240.57,311.79L266.84,314.18L272.1,308.75L274.73,308.62L277.35,309.33L279.98,311.62L282.61,314.28L285.24,314.3L290.49,309.39L293.12,311L295.75,312.06L298.37,312.36L301,315.72L303.63,315.14L308.88,312.27L311.51,306.68L314.14,305.62L316.77,307.3L319.4,306.07L322.02,306.77L327.28,311.54L329.91,317.57L332.53,317.24L335.16,319.53L337.79,317.93L340.42,320.62L345.67,319.27L348.3,316L350.93,316.71L353.55,317.81L356.18,314.56L358.81,313.64L364.06,310.69L366.69,310.1L369.32,313.06L371.95,314.48L374.57,313.6L377.2,314.37L382.46,304.84L385.08,307.8L387.71,309.3L390.34,309.46L392.97,306.98L395.59,310.19L400.85,310.98L403.48,305.36L406.1,307.96L408.73,308.33L411.36,309.77L413.99,308.18L419.24,310.76L421.87,311.35L424.5,313.75L427.12,313.49L429.75,314.16L432.38,314.04L437.63,314.28L440.26,311.72L442.89,311.71L445.52,311.13L448.15,310.59L450.77,312.52L456.03,311.41L458.66,312.58L461.28,313.1L463.91,311.94L466.54,309.88L469.17,309.83L471.79,307.47L474.42,304.5L477.05,303.97L479.68,303.49L482.3,304.61L484.93,309.22L490.19,310.05L492.81,310.89L495.33,310.91L497.96,311.78L500.59,310.18L503.21,309.84L505.84,308.97L508.47,306.83L513.72,304.51L516.35,304.24L518.98,299.37L521.61,300.94L524.23,302.55L526.86,304.01L529.49,306.33L532.12,306.23L534.74,306.94L537.37,307.73L540,307.02"/><path class="partyline Con" d="M25,87.14L27.63,81.69L32.88,82.3L35.51,78.49L38.14,77.92L40.77,76.7L43.39,88.95L46.02,91.97L51.28,96.74L53.9,97.33L56.53,98.97L59.16,98.11L61.79,95.84L64.41,95.4L69.67,97.42L72.3,96.35L74.92,94.13L77.55,93.84L80.18,89.19L82.81,85.1L88.06,85.03L90.8,84.8L93.43,85.24L96.05,87.9L98.68,85.88L101.31,85.32L103.94,91.63L106.56,92.77L109.19,91.45L111.82,91.4L114.45,92.05L117.07,89.74L119.7,90.64L124.96,93.76L127.58,93.38L130.21,91.7L132.84,90.69L135.47,86.12L138.09,87.78L143.35,88.26L145.98,85.6L148.6,86.22L151.23,84.41L153.86,82.05L156.49,79.08L161.74,89.3L164.37,95.79L167,96.98L169.62,96.03L172.25,98.04L174.88,96.87L180.13,97.4L182.76,96.75L185.39,96.89L188.02,96.38L190.65,95.56L193.27,92.48L198.53,92.38L201.16,89.97L203.78,88.61L206.41,86.94L209.04,83.02L211.67,81.78L216.92,84.67L219.55,91.49L222.18,95.68L224.8,94.7L227.43,93.03L230.06,98.16L235.31,93.13L237.94,91.75L240.57,94.16L266.84,90.41L272.1,86.16L274.73,87.63L277.35,83.41L279.98,83.48L282.61,89.91L285.24,91.66L290.49,88.04L293.12,88.16L295.75,88.95L298.37,84.15L301,91.28L303.63,92.45L308.88,92.72L311.51,95.22L314.14,95.59L316.77,94.04L319.4,91.13L322.02,90.07L327.28,88.84L329.91,90.23L332.53,88.39L335.16,87.07L337.79,81.98L340.42,82.17L345.67,84.37L348.3,89.36L350.93,90.23L353.55,89.5L356.18,91.99L358.81,91.6L364.06,84.18L366.69,81.3L369.32,79.42L371.95,78.9L374.57,83L377.2,84.4L382.46,87.32L385.08,91.63L387.71,90.28L390.34,89.78L392.97,90.51L395.59,85.32L400.85,86.71L403.48,85.81L406.1,82.54L408.73,81.73L411.36,80.5L413.99,79.7L419.24,76.75L421.87,75.56L424.5,73.19L427.12,72.1L429.75,78.08L432.38,74.95L437.63,76.99L440.26,77.57L442.89,77.42L445.52,74.3L448.15,80.77L450.77,80.01L456.03,78.85L458.66,77.82L461.28,74.92L463.91,75.19L466.54,73.07L469.17,72.63L471.79,77.53L474.42,78.74L477.05,77.64L479.68,77.46L482.3,76.61L484.93,73.86L490.19,74.02L492.81,70.43L495.33,69.7L497.96,67.02L500.59,66.66L503.21,64.04L505.84,70.83L508.47,71.03L513.72,74.82L516.35,80.53L518.98,81.71L521.61,81.83L524.23,80.27L526.86,78.78L529.49,75.65L532.12,74.19L534.74,72.42L537.37,70.69L540,71.13"/><text class="linelabel UKIP" x="543" y="266.7206634924623">UKIP 13</text><text class="linelabel Green" x="543" y="335.9524916978325">Green 5.4</text><text class="linelabel Lab" x="543" y="68.78071121028363">Lab 33.9</text><text class="linelabel LD" x="543" y="312.02236871051883">LD 8</text><text class="linelabel Con" x="543" y="82.83016855757002">Con 33.8</text></svg>
