<svg version="1.1" class="hidden-resource" xmlns="http://www.w3.org/2000/svg" xmlns:xlink="http://www.w3.org/1999/xlink" x="0px" y="0px"
width="31" height="82" viewBox="0 0 31 82" enable-background="new 0 0 31 82" xml:space="preserve">
  <defs>
    <symbol id="slider-handle-graphic">
      <polygon fill="#75746C" points="10.343,6.744 16,1.087 21.656,6.744 "/>
      <g>
        <path fill="#FFF9F2" d="M30,31.167c0,2.209-1.791,4-4,4H6c-2.209,0-4-1.791-4-4v-20c0-2.209,1.791-4,4-4h20c2.209,0,4,1.791,4,4
          V31.167z"/>
          <path fill="none" stroke="#A7A59B" stroke-miterlimit="10" d="M29.5,30.667c0,2.209-1.791,4-4,4h-20c-2.209,0-4-1.791-4-4v-20
            c0-2.209,1.791-4,4-4h20c2.209,0,4,1.791,4,4V30.667z"/>
          </g>
          <path fill="#44423F" d="M21.143,21.312l-2.812-4.996h1.653l2.888,4.996l-2.888,5.035H18.33L21.143,21.312z"/>
          <path fill="#44423F" d="M13.871,26.35h-1.653L9.33,21.312l2.888-4.996h1.653l-2.812,4.996L13.871,26.35z"/>
          <g>
            <polygon fill="#75746D" points="21.656,-44.81 16,-39.152 10.343,-44.81 	"/>
          </g>
          <rect x="-29" y="-8.333" fill="#75746C" width="0.167" height="0"/>
      </symbol>
  </defs>
</svg>
